<?xml version="1.0" encoding="utf-8"?>
<!-- Generator: Adobe Illustrator 27.5.0, SVG Export Plug-In . SVG Version: 6.00 Build 0)  -->
<svg version="1.1" xmlns="http://www.w3.org/2000/svg" xmlns:xlink="http://www.w3.org/1999/xlink" x="0px" y="0px"
	 viewBox="0 0 500 500" style="enable-background:new 0 0 500 500;" xml:space="preserve">
<g id="Background_Complete">
	<g>
		<rect y="382.398" style="fill:#EBEBEB;" width="500" height="0.25"/>
		<rect x="52.459" y="391.922" style="fill:#EBEBEB;" width="33.122" height="0.25"/>
		<rect x="171.14" y="389.208" style="fill:#EBEBEB;" width="55.416" height="0.25"/>
		<rect x="91" y="397.861" style="fill:#EBEBEB;" width="19.192" height="0.25"/>
		<rect x="385.46" y="391.797" style="fill:#EBEBEB;" width="43.193" height="0.25"/>
		<rect x="437.556" y="391.797" style="fill:#EBEBEB;" width="6.333" height="0.25"/>
		<rect x="277.213" y="395.306" style="fill:#EBEBEB;" width="46.838" height="0.25"/>
		<path style="fill:#EBEBEB;" d="M237.014,337.8H43.915c-3.147,0-5.708-2.561-5.708-5.708V60.66c0-3.147,2.561-5.708,5.708-5.708
			h193.099c3.146,0,5.707,2.561,5.707,5.708v271.432C242.721,335.239,240.16,337.8,237.014,337.8z M43.915,55.203
			c-3.01,0-5.458,2.448-5.458,5.458v271.432c0,3.01,2.448,5.458,5.458,5.458h193.099c3.009,0,5.457-2.448,5.457-5.458V60.66
			c0-3.009-2.448-5.458-5.457-5.458H43.915z"/>
		<path style="fill:#EBEBEB;" d="M453.31,337.8H260.212c-3.147,0-5.707-2.561-5.707-5.708V60.66c0-3.147,2.561-5.708,5.707-5.708
			H453.31c3.148,0,5.708,2.561,5.708,5.708v271.432C459.019,335.239,456.458,337.8,453.31,337.8z M260.212,55.203
			c-3.009,0-5.457,2.448-5.457,5.458v271.432c0,3.01,2.448,5.458,5.457,5.458H453.31c3.01,0,5.458-2.448,5.458-5.458V60.66
			c0-3.009-2.448-5.458-5.458-5.458H260.212z"/>
	</g>
	<g>
		<g>
			<rect x="59.25" y="85.063" style="fill:#F0F0F0;" width="168.04" height="297.335"/>
			<rect x="59.25" y="69.556" style="fill:#F5F5F5;" width="168.04" height="4.587"/>
			<rect x="59.25" y="69.556" style="fill:#F5F5F5;" width="168.04" height="4.587"/>
			<rect x="274.716" y="69.556" style="fill:#F5F5F5;" width="168.04" height="4.587"/>
			<rect x="43.444" y="121.562" style="fill:#FAFAFA;" width="152.401" height="9.438"/>
			
				<rect x="195.845" y="121.562" transform="matrix(-1 -1.224647e-16 1.224647e-16 -1 423.1355 252.5618)" style="fill:#E0E0E0;" width="31.445" height="9.438"/>
			<rect x="43.444" y="201.562" style="fill:#FAFAFA;" width="152.401" height="9.438"/>
			
				<rect x="195.845" y="201.562" transform="matrix(-1 -1.224647e-16 1.224647e-16 -1 423.1355 412.5618)" style="fill:#E0E0E0;" width="31.445" height="9.438"/>
			<rect x="43.444" y="281.562" style="fill:#FAFAFA;" width="152.401" height="9.438"/>
			
				<rect x="195.845" y="281.562" transform="matrix(-1 -1.224647e-16 1.224647e-16 -1 423.1355 572.5618)" style="fill:#E0E0E0;" width="31.445" height="9.438"/>
		</g>
		<g>
			<path style="fill:#FFFFFF;" d="M102.513,167.555H76.849c-1.864,0-3.376,1.511-3.376,3.376v27.255
				c0,1.864,1.511,3.376,3.376,3.376h25.664c1.864,0,3.376-1.511,3.376-3.376v-27.255
				C105.889,169.067,104.378,167.555,102.513,167.555z"/>
			<rect x="73.473" y="171.771" style="fill:#F0F0F0;" width="18.327" height="25.46"/>
			<path style="fill:#E0E0E0;" d="M97.316,167.555h-15.27c-0.581,0-1.051-0.471-1.051-1.051v-2.519c0-0.581,0.471-1.051,1.051-1.051
				h15.27c0.581,0,1.051,0.471,1.051,1.051v2.519C98.368,167.085,97.897,167.555,97.316,167.555z"/>
		</g>
		<g>
			<path style="fill:#FFFFFF;" d="M146.653,167.555h-25.664c-1.864,0-3.376,1.511-3.376,3.376v27.255
				c0,1.864,1.511,3.376,3.376,3.376h25.664c1.864,0,3.376-1.511,3.376-3.376v-27.255
				C150.028,169.067,148.517,167.555,146.653,167.555z"/>
			<rect x="117.613" y="171.771" style="fill:#F0F0F0;" width="18.326" height="25.46"/>
			<path style="fill:#E0E0E0;" d="M141.456,167.555h-15.27c-0.581,0-1.051-0.471-1.051-1.051v-2.519
				c0-0.581,0.471-1.051,1.051-1.051h15.27c0.581,0,1.051,0.471,1.051,1.051v2.519C142.507,167.085,142.036,167.555,141.456,167.555
				z"/>
		</g>
		<g>
			<path style="fill:#FFFFFF;" d="M190.792,167.555h-25.664c-1.864,0-3.376,1.511-3.376,3.376v27.255
				c0,1.864,1.511,3.376,3.376,3.376h25.664c1.864,0,3.376-1.511,3.376-3.376v-27.255
				C194.168,169.067,192.657,167.555,190.792,167.555z"/>
			<rect x="161.752" y="171.771" style="fill:#F0F0F0;" width="18.326" height="25.46"/>
			<path style="fill:#E0E0E0;" d="M185.595,167.555h-15.27c-0.581,0-1.051-0.471-1.051-1.051v-2.519
				c0-0.581,0.471-1.051,1.051-1.051h15.27c0.581,0,1.051,0.471,1.051,1.051v2.519C186.647,167.085,186.176,167.555,185.595,167.555
				z"/>
		</g>
		<g>
			<rect x="73.373" y="103.394" style="fill:#E0E0E0;" width="15.313" height="18.168"/>
			<rect x="76.623" y="107.917" style="fill:#F5F5F5;" width="12.599" height="9.122"/>
			<path style="fill:#FAFAFA;" d="M89.173,104.796H72.885c-0.681,0-1.233-0.552-1.233-1.232v-2.791c0-0.681,0.552-1.233,1.233-1.233
				h16.288c0.681,0,1.232,0.552,1.232,1.233v2.791C90.406,104.244,89.854,104.796,89.173,104.796z"/>
		</g>
		<g>
			<rect x="102.66" y="103.394" style="fill:#E0E0E0;" width="15.313" height="18.168"/>
			<rect x="105.91" y="107.917" style="fill:#F5F5F5;" width="12.599" height="9.122"/>
			<path style="fill:#FAFAFA;" d="M118.46,104.796h-16.288c-0.681,0-1.233-0.552-1.233-1.232v-2.791
				c0-0.681,0.552-1.233,1.233-1.233h16.288c0.681,0,1.233,0.552,1.233,1.233v2.791C119.693,104.244,119.141,104.796,118.46,104.796
				z"/>
		</g>
		<g>
			<rect x="131.947" y="103.394" style="fill:#E0E0E0;" width="15.313" height="18.168"/>
			<rect x="135.197" y="107.917" style="fill:#F5F5F5;" width="12.599" height="9.122"/>
			<path style="fill:#FAFAFA;" d="M147.747,104.796h-16.288c-0.681,0-1.232-0.552-1.232-1.232v-2.791
				c0-0.681,0.552-1.233,1.232-1.233h16.288c0.681,0,1.232,0.552,1.232,1.233v2.791C148.98,104.244,148.428,104.796,147.747,104.796
				z"/>
		</g>
		<g>
			<rect x="161.234" y="103.394" style="fill:#E0E0E0;" width="15.313" height="18.168"/>
			<rect x="164.484" y="107.917" style="fill:#F5F5F5;" width="12.599" height="9.122"/>
			<path style="fill:#FAFAFA;" d="M177.035,104.796h-16.288c-0.681,0-1.233-0.552-1.233-1.232v-2.791
				c0-0.681,0.552-1.233,1.233-1.233h16.288c0.681,0,1.232,0.552,1.232,1.233v2.791
				C178.267,104.244,177.715,104.796,177.035,104.796z"/>
		</g>
		<g>
			<rect x="70.167" y="252.382" style="fill:#FAFAFA;" width="18.833" height="29.179"/>
			<rect x="70.167" y="259.444" style="fill:#E6E6E6;" width="14.167" height="15.055"/>
			
				<rect x="89" y="252.382" transform="matrix(-1 -1.224647e-16 1.224647e-16 -1 186.1667 533.9442)" style="fill:#E6E6E6;" width="8.167" height="29.179"/>
		</g>
		<g>
			<rect x="100.167" y="252.382" style="fill:#FAFAFA;" width="18.833" height="29.179"/>
			<rect x="100.167" y="259.444" style="fill:#E6E6E6;" width="14.167" height="15.055"/>
			
				<rect x="119" y="252.382" transform="matrix(-1 -1.224647e-16 1.224647e-16 -1 246.1667 533.9442)" style="fill:#E6E6E6;" width="8.167" height="29.179"/>
		</g>
		<g>
			<rect x="130.167" y="252.382" style="fill:#FAFAFA;" width="18.833" height="29.179"/>
			<rect x="130.167" y="259.444" style="fill:#E6E6E6;" width="14.167" height="15.055"/>
			
				<rect x="149" y="252.382" transform="matrix(-1 -1.224647e-16 1.224647e-16 -1 306.1667 533.9442)" style="fill:#E6E6E6;" width="8.167" height="29.179"/>
		</g>
		<g>
			<rect x="160.167" y="252.382" style="fill:#FAFAFA;" width="18.833" height="29.179"/>
			<rect x="160.167" y="259.444" style="fill:#E6E6E6;" width="14.167" height="15.055"/>
			
				<rect x="179" y="252.382" transform="matrix(-1 -1.224647e-16 1.224647e-16 -1 366.1667 533.9442)" style="fill:#E6E6E6;" width="8.167" height="29.179"/>
		</g>
		<g>
			<rect x="274.716" y="85.063" style="fill:#F0F0F0;" width="168.04" height="297.335"/>
			<rect x="258.91" y="121.562" style="fill:#FAFAFA;" width="152.401" height="9.438"/>
			
				<rect x="411.31" y="121.562" transform="matrix(-1 -1.224647e-16 1.224647e-16 -1 854.0661 252.5618)" style="fill:#E0E0E0;" width="31.445" height="9.438"/>
			<rect x="258.91" y="201.562" style="fill:#FAFAFA;" width="152.401" height="9.438"/>
			
				<rect x="411.31" y="201.562" transform="matrix(-1 -1.224647e-16 1.224647e-16 -1 854.0661 412.5618)" style="fill:#E0E0E0;" width="31.445" height="9.438"/>
			<rect x="258.91" y="281.562" style="fill:#FAFAFA;" width="152.401" height="9.438"/>
			
				<rect x="411.31" y="281.562" transform="matrix(-1 -1.224647e-16 1.224647e-16 -1 854.0661 572.5618)" style="fill:#E0E0E0;" width="31.445" height="9.438"/>
		</g>
		<g>
			<path style="fill:#FFFFFF;" d="M316.571,263.418h-29.017c-2.108,0-3.817,1.709-3.817,3.817v10.51
				c0,2.108,1.709,3.817,3.817,3.817h29.017c2.108,0,3.817-1.709,3.817-3.817v-10.51
				C320.388,265.127,318.679,263.418,316.571,263.418z"/>
			<rect x="283.738" y="268.185" style="fill:#F0F0F0;" width="20.72" height="8.48"/>
			<path style="fill:#E0E0E0;" d="M310.695,263.418h-17.265c-0.657,0-1.189-0.532-1.189-1.189v-2.848
				c0-0.656,0.532-1.189,1.189-1.189h17.265c0.656,0,1.189,0.532,1.189,1.189v2.848
				C311.884,262.886,311.352,263.418,310.695,263.418z"/>
		</g>
		<g>
			<path style="fill:#FFFFFF;" d="M366.476,263.418H337.46c-2.108,0-3.817,1.709-3.817,3.817v10.51c0,2.108,1.709,3.817,3.817,3.817
				h29.017c2.108,0,3.817-1.709,3.817-3.817v-10.51C370.293,265.127,368.584,263.418,366.476,263.418z"/>
			<rect x="333.643" y="268.185" style="fill:#F0F0F0;" width="20.72" height="8.48"/>
			<path style="fill:#E0E0E0;" d="M360.601,263.418h-17.265c-0.656,0-1.189-0.532-1.189-1.189v-2.848
				c0-0.656,0.532-1.189,1.189-1.189h17.265c0.657,0,1.189,0.532,1.189,1.189v2.848
				C361.789,262.886,361.257,263.418,360.601,263.418z"/>
		</g>
		<g>
			<path style="fill:#FFFFFF;" d="M416.382,263.418h-29.017c-2.108,0-3.817,1.709-3.817,3.817v10.51
				c0,2.108,1.709,3.817,3.817,3.817h29.017c2.108,0,3.817-1.709,3.817-3.817v-10.51
				C420.198,265.127,418.489,263.418,416.382,263.418z"/>
			<rect x="383.548" y="268.185" style="fill:#F0F0F0;" width="20.72" height="8.48"/>
			<path style="fill:#E0E0E0;" d="M410.506,263.418h-17.265c-0.657,0-1.189-0.532-1.189-1.189v-2.848
				c0-0.656,0.532-1.189,1.189-1.189h17.265c0.656,0,1.189,0.532,1.189,1.189v2.848
				C411.694,262.886,411.162,263.418,410.506,263.418z"/>
		</g>
		<g>
			<rect x="292.32" y="179.925" style="fill:#E0E0E0;" width="19.666" height="21.637"/>
			<rect x="296.494" y="185.311" style="fill:#F5F5F5;" width="16.181" height="10.864"/>
			<path style="fill:#FAFAFA;" d="M313.209,180.917h-22.111c-0.545,0-0.986-0.442-0.986-0.987v-0.694
				c0-0.545,0.442-0.986,0.986-0.986h22.111c0.545,0,0.987,0.442,0.987,0.986v0.694
				C314.195,180.475,313.754,180.917,313.209,180.917z"/>
		</g>
		<g>
			<rect x="329.933" y="179.925" style="fill:#E0E0E0;" width="19.666" height="21.637"/>
			<rect x="334.107" y="185.311" style="fill:#F5F5F5;" width="16.181" height="10.864"/>
			<path style="fill:#FAFAFA;" d="M350.821,180.917H328.71c-0.545,0-0.987-0.442-0.987-0.987v-0.694
				c0-0.545,0.442-0.986,0.987-0.986h22.111c0.545,0,0.987,0.442,0.987,0.986v0.694
				C351.808,180.475,351.366,180.917,350.821,180.917z"/>
		</g>
		<g>
			<rect x="367.546" y="179.925" style="fill:#E0E0E0;" width="19.666" height="21.637"/>
			<rect x="371.72" y="185.311" style="fill:#F5F5F5;" width="16.181" height="10.864"/>
			<path style="fill:#FAFAFA;" d="M388.434,180.917h-22.111c-0.545,0-0.987-0.442-0.987-0.987v-0.694
				c0-0.545,0.442-0.986,0.987-0.986h22.111c0.545,0,0.987,0.442,0.987,0.986v0.694C389.42,180.475,388.979,180.917,388.434,180.917
				z"/>
		</g>
		<g>
			<rect x="405.158" y="179.925" style="fill:#E0E0E0;" width="19.666" height="21.637"/>
			<rect x="409.332" y="185.311" style="fill:#F5F5F5;" width="16.181" height="10.864"/>
			<path style="fill:#FAFAFA;" d="M426.047,180.917h-22.111c-0.545,0-0.987-0.442-0.987-0.987v-0.694
				c0-0.545,0.442-0.986,0.987-0.986h22.111c0.545,0,0.987,0.442,0.987,0.986v0.694
				C427.033,180.475,426.591,180.917,426.047,180.917z"/>
		</g>
		<g>
			<rect x="298.262" y="100.683" style="fill:#FAFAFA;" width="17.207" height="20.879"/>
			<rect x="298.262" y="105.736" style="fill:#E6E6E6;" width="12.943" height="10.773"/>
			
				<rect x="315.469" y="100.683" transform="matrix(-1 -1.224647e-16 1.224647e-16 -1 638.3989 222.2443)" style="fill:#E6E6E6;" width="7.462" height="20.879"/>
		</g>
		<g>
			<rect x="325.671" y="100.683" style="fill:#FAFAFA;" width="17.207" height="20.879"/>
			<rect x="325.671" y="105.736" style="fill:#E6E6E6;" width="12.943" height="10.773"/>
			
				<rect x="342.878" y="100.683" transform="matrix(-1 -1.224647e-16 1.224647e-16 -1 693.2176 222.2443)" style="fill:#E6E6E6;" width="7.461" height="20.879"/>
		</g>
		<g>
			<rect x="353.081" y="100.683" style="fill:#FAFAFA;" width="17.207" height="20.879"/>
			<rect x="353.081" y="105.736" style="fill:#E6E6E6;" width="12.943" height="10.773"/>
			
				<rect x="370.288" y="100.683" transform="matrix(-1 -1.224647e-16 1.224647e-16 -1 748.0364 222.2443)" style="fill:#E6E6E6;" width="7.461" height="20.879"/>
		</g>
		<g>
			<rect x="380.49" y="100.683" style="fill:#FAFAFA;" width="17.207" height="20.879"/>
			<rect x="380.49" y="105.736" style="fill:#E6E6E6;" width="12.943" height="10.773"/>
			
				<rect x="397.697" y="100.683" transform="matrix(-1 -1.224647e-16 1.224647e-16 -1 802.8551 222.2443)" style="fill:#E6E6E6;" width="7.462" height="20.879"/>
		</g>
	</g>
</g>
<g id="Background_Simple" style="display:none;">
	<g style="display:inline;">
		<path style="fill:#407BFF;" d="M301.378,136.657c232.083-28.848,146.457,141.284,62.047,158.69
			c-84.512,17.719-214.844,10.545-254.429-26.977c-54.358-46.07-52.309-134.499-3.384-181.289
			c47.624-41.195,120.681-27.895,145.181,28.864C261.7,132.201,281.809,135.831,301.378,136.657z"/>
		<path style="opacity:0.9;fill:#FFFFFF;" d="M301.378,136.657c232.083-28.848,146.457,141.284,62.047,158.69
			c-84.512,17.719-214.844,10.545-254.429-26.977c-54.358-46.07-52.309-134.499-3.384-181.289
			c47.624-41.195,120.681-27.895,145.181,28.864C261.7,132.201,281.809,135.831,301.378,136.657z"/>
	</g>
</g>
<g id="Shadow_1_">
	<ellipse id="_x3C_Path_x3E__121_" style="fill:#F5F5F5;" cx="250" cy="416.238" rx="193.889" ry="11.323"/>
</g>
<g id="Obj_1">
</g>
<g id="Character_1_">
	<g>
		<path style="fill:#263238;" d="M248.381,97.255c-9.766,4.601-10.714,17.952-7.048,29.301c2.641,8.176-4.289,8.606-5.917,20.111
			c-2.567,18.141,13.667,32.926,30.912,29.733c17.246-3.193,0.546-38.843,6.876-51.271S258.882,92.308,248.381,97.255z"/>
		<path style="fill:#CE7A63;" d="M281.201,378.837l11.112,0.815c-1.535,8.845-2.984,22.811-2.984,22.811h-8.808
			C280.521,402.463,281.529,384.889,281.201,378.837z"/>
		<path style="fill:#CE7A63;" d="M223.372,378.837l11.026,0.815c-2.474,8.845-5.407,22.811-5.407,22.811h-8.808
			C220.183,402.463,223.058,384.889,223.372,378.837z"/>
		<path style="fill:#407BFF;" d="M270.981,411.199c7.656,0,7.112-0.118,11.424-0.263c3.693-0.132,4.541,0.329,7.506,0.263
			c2.477-0.053,2.558-2.42,1.994-5.144c-0.215-1.045-0.54-2.267-0.844-3.77c-0.176-0.868-0.917-1.478-1.817-1.478h-8.957
			c-0.652,0-1.296,0.31-1.693,0.855c-1.885,2.581-4.965,4.476-8.899,5C265.536,407.213,267.929,411.199,270.981,411.199z"/>
		<path style="fill:#407BFF;" d="M210.853,411.199c7.656,0,7.112-0.118,11.424-0.263c3.693-0.132,4.541,0.329,7.505,0.263
			c2.477-0.053,2.558-2.42,1.994-5.144c-0.215-1.045-0.54-2.267-0.844-3.77c-0.176-0.868-0.917-1.478-1.817-1.478h-8.957
			c-0.652,0-1.296,0.31-1.693,0.855c-1.885,2.581-4.965,4.476-8.899,5C205.408,407.213,207.801,411.199,210.853,411.199z"/>
		<path style="fill:#263238;" d="M234.867,206.098c0,0-6.961,54.139-6.354,88.518c-2.64,32.276-6.883,94.012-6.883,94.012
			c0.126,1.649,8.833,0.991,10.376,0c0,0,19.93-41.659,16.69-94.012c22.143-54.601,20.821-88.518,20.821-88.518H234.867z"/>
		<path style="opacity:0.2;" d="M263.347,249.817c-1.718,7.051-3.926,14.871-6.748,23.379c-0.823-17.141-5.457-40.083-5.613-40.864
			L263.347,249.817z"/>
		<path style="fill:#263238;" d="M244.298,206.098c0,0,15.83,61.106,22.101,91.112c6.586,31.513,15.82,70.484,13.986,91.418
			c1.763,1.042,8.065,1.105,11.629,0c0,0,13.556-59.687-3.682-90.024c6.237-74.648-13.509-92.506-13.509-92.506H244.298z"/>
		<g>
			<path style="fill:#263238;" d="M279.632,384.269c-0.064,1.056-0.213,2.896-0.528,4.3c-0.113,0.507,0.214,0.976,0.722,1.057
				c4.237,0.682,10.425-0.306,12.39-0.658c0.376-0.067,0.669-0.364,0.739-0.74l0.75-4.022c0.103-0.55-0.314-1.045-0.871-1.034
				l-12.3,0.237C280.057,383.418,279.661,383.792,279.632,384.269z"/>
			<path style="opacity:0.1;fill:#FFFFFF;" d="M279.632,384.269c-0.064,1.056-0.213,2.896-0.528,4.3
				c-0.113,0.507,0.214,0.976,0.722,1.057c4.237,0.682,10.425-0.306,12.39-0.658c0.376-0.067,0.669-0.364,0.739-0.74l0.75-4.022
				c0.103-0.55-0.314-1.045-0.871-1.034l-12.3,0.237C280.057,383.418,279.661,383.792,279.632,384.269z"/>
		</g>
		<g>
			<path style="fill:#263238;" d="M220.785,384.079c-0.116,1.121-0.332,3.119-0.547,4.595c-0.071,0.488,0.26,0.919,0.745,0.987
				c3.633,0.506,9.523,0.047,11.458-0.127c0.383-0.035,0.705-0.31,0.805-0.683l1.076-4.02c0.147-0.548-0.24-1.079-0.803-1.102
				l-11.782-0.47C221.255,383.24,220.835,383.599,220.785,384.079z"/>
			<path style="opacity:0.1;fill:#FFFFFF;" d="M220.785,384.079c-0.116,1.121-0.332,3.119-0.547,4.595
				c-0.071,0.488,0.26,0.919,0.745,0.987c3.633,0.506,9.523,0.047,11.458-0.127c0.383-0.035,0.705-0.31,0.805-0.683l1.076-4.02
				c0.147-0.548-0.24-1.079-0.803-1.102l-11.782-0.47C221.255,383.24,220.835,383.599,220.785,384.079z"/>
		</g>
		<path style="fill:#CE7A63;" d="M181.108,164.478l1.936,2.4c0.728,0.903,1.847,1.398,3.005,1.329l5.41-0.321
			c2.163-0.128,4.129-1.296,5.277-3.133l0.711-1.138c-2.938-4.2-9.208-6.574-9.208-6.574l-1.712-0.875
			c-1.525-0.779-3.296-0.251-4.068,1.213l-1.778,3.37C180.064,161.913,180.235,163.396,181.108,164.478z"/>
		<g>
			<path style="fill:#407BFF;" d="M191.911,145.904l-9.181,1.95c-0.793,0.169-1.3,0.948-1.132,1.742l2.385,11.23
				c0.168,0.793,0.948,1.3,1.742,1.132l9.181-1.95c0.793-0.169,1.3-0.948,1.132-1.742l-2.385-11.23
				C193.484,146.242,192.704,145.735,191.911,145.904z"/>
			
				<rect x="164.468" y="124.361" transform="matrix(0.7413 -0.6712 0.6712 0.7413 -41.994 143.3631)" style="fill:#407BFF;" width="1" height="3.588"/>
			
				<rect x="194.321" y="137.004" transform="matrix(0.6513 -0.7588 0.7588 0.6513 -35.4456 197.8721)" style="fill:#407BFF;" width="6.518" height="1"/>
			
				<rect x="173.4" y="128.247" transform="matrix(0.7413 -0.6712 0.6712 0.7413 -46.3037 151.9142)" style="fill:#407BFF;" width="1" height="15.544"/>
			
				<rect x="170.217" y="137.502" transform="matrix(0.3289 -0.9444 0.9444 0.3289 -21.5214 257.9178)" style="fill:#407BFF;" width="1" height="13.2"/>
			<path style="fill:#407BFF;" d="M189.677,143.965l-5.694,1.209c-0.352,0.075-0.576,0.42-0.501,0.772l0.922,4.341
				c0.075,0.352,0.42,0.576,0.772,0.501l5.693-1.209c0.352-0.075,0.576-0.42,0.502-0.772l-0.922-4.341
				C190.374,144.115,190.028,143.891,189.677,143.965z"/>
			<path style="fill:#263238;" d="M189.774,140.697l-7.208,1.531c-0.332,0.07-0.544,0.397-0.473,0.729l0.625,2.943
				c0.07,0.332,0.397,0.544,0.729,0.473l7.208-1.531c0.332-0.07,0.544-0.397,0.473-0.729l-0.625-2.943
				C190.432,140.838,190.106,140.626,189.774,140.697z"/>
			
				<rect x="184.715" y="149.386" transform="matrix(0.9782 -0.2077 0.2077 0.9782 -27.7448 42.7809)" style="opacity:0.8;fill:#FFFFFF;" width="10.194" height="8.201"/>
		</g>
		<g>
			<path style="fill:#407BFF;" d="M245.603,159.556c-0.293,0.493-0.473,0.757-0.705,1.114l-0.659,0.976l-1.322,1.878
				c-0.888,1.232-1.806,2.428-2.754,3.598c-1.905,2.331-3.88,4.599-6.012,6.742c-4.233,4.301-8.992,8.229-14.43,11.355
				c-1.357,0.783-2.753,1.515-4.195,2.178l-1.088,0.485l-0.272,0.121l-0.148,0.064l-0.241,0.095
				c-0.321,0.125-0.644,0.244-0.982,0.34c-1.335,0.403-2.77,0.574-4.102,0.507c-2.698-0.117-4.901-0.987-6.664-1.935
				c-1.773-0.973-3.231-2.047-4.546-3.156c-2.603-2.235-4.696-4.57-6.667-6.948c-0.972-1.196-1.917-2.392-2.837-3.608
				c-0.458-0.61-0.906-1.227-1.348-1.854c-0.45-0.656-0.872-1.198-1.385-1.997l12.753-6.94c0.156,0.413,0.44,1.061,0.708,1.589
				c0.278,0.554,0.567,1.11,0.865,1.66c0.59,1.104,1.222,2.186,1.904,3.21c1.345,2.052,2.844,3.971,4.383,5.419
				c0.759,0.721,1.521,1.331,2.173,1.697c0.652,0.388,1.121,0.489,1.199,0.502c0.051,0.007,0.008-0.005-0.001,0.002
				c-0.003,0.006-0.001,0-0.001,0l0.002,0.002l0.089-0.04l0.202-0.091l0.808-0.363c1.074-0.496,2.13-1.053,3.17-1.655
				c2.068-1.229,4.053-2.663,5.955-4.239c1.884-1.603,3.678-3.35,5.366-5.218c1.671-1.883,3.267-3.857,4.694-5.95
				c0.72-1.04,1.411-2.099,2.063-3.167c0.327-0.534,0.645-1.067,0.937-1.606l0.424-0.796c0.122-0.237,0.294-0.57,0.335-0.683
				L245.603,159.556z"/>
			<path style="opacity:0.7;fill:#FFFFFF;" d="M245.603,159.556c-0.293,0.493-0.473,0.757-0.705,1.114l-0.659,0.976l-1.322,1.878
				c-0.888,1.232-1.806,2.428-2.754,3.598c-1.905,2.331-3.88,4.599-6.012,6.742c-4.233,4.301-8.992,8.229-14.43,11.355
				c-1.357,0.783-2.753,1.515-4.195,2.178l-1.088,0.485l-0.272,0.121l-0.148,0.064l-0.241,0.095
				c-0.321,0.125-0.644,0.244-0.982,0.34c-1.335,0.403-2.77,0.574-4.102,0.507c-2.698-0.117-4.901-0.987-6.664-1.935
				c-1.773-0.973-3.231-2.047-4.546-3.156c-2.603-2.235-4.696-4.57-6.667-6.948c-0.972-1.196-1.917-2.392-2.837-3.608
				c-0.458-0.61-0.906-1.227-1.348-1.854c-0.45-0.656-0.872-1.198-1.385-1.997l12.753-6.94c0.156,0.413,0.44,1.061,0.708,1.589
				c0.278,0.554,0.567,1.11,0.865,1.66c0.59,1.104,1.222,2.186,1.904,3.21c1.345,2.052,2.844,3.971,4.383,5.419
				c0.759,0.721,1.521,1.331,2.173,1.697c0.652,0.388,1.121,0.489,1.199,0.502c0.051,0.007,0.008-0.005-0.001,0.002
				c-0.003,0.006-0.001,0-0.001,0l0.002,0.002l0.089-0.04l0.202-0.091l0.808-0.363c1.074-0.496,2.13-1.053,3.17-1.655
				c2.068-1.229,4.053-2.663,5.955-4.239c1.884-1.603,3.678-3.35,5.366-5.218c1.671-1.883,3.267-3.857,4.694-5.95
				c0.72-1.04,1.411-2.099,2.063-3.167c0.327-0.534,0.645-1.067,0.937-1.606l0.424-0.796c0.122-0.237,0.294-0.57,0.335-0.683
				L245.603,159.556z"/>
		</g>
		<path style="fill:#407BFF;" d="M231.157,160.298c-0.125,3.822-0.292,8.66,0.271,17.784c0.32,7.722,2.023,15.839,4.106,28.335
			c4.226,2.476,25.607,1.45,39.29-0.318c-0.831-10.951,0.526-23.465,7.946-48.105c1.721-5.713-2.116-11.199-8.243-11.784
			c-1.637-0.156-3.374-0.286-5.156-0.368c-6.929-0.315-12.611-0.524-18.766,0.001c-2.04,0.174-4.153,0.415-6.175,0.679
			C237.138,147.473,231.381,153.448,231.157,160.298z"/>
		<path style="fill:#407BFF;" d="M234.792,209.05c13.634,1.55,27.86,1.465,41.494-0.085c0.604-0.067,0.967-0.735,0.72-1.318
			c-0.338-0.795-0.674-1.591-1.006-2.387c-0.155-0.371-0.514-0.595-0.891-0.552c-13.106,1.435-26.793,1.492-39.895,0.001
			c-0.48-0.058-0.913,0.32-0.965,0.833c-0.083,0.826-0.166,1.649-0.249,2.474C233.947,208.531,234.301,208.993,234.792,209.05z"/>
		<path style="fill:#CE7A63;" d="M268.054,124.731c-1.634,6.038-3.639,17.101,0.285,21.13c0,0,1.193,5.913-15.015,5.364
			c-12.476-0.423-3.75-5.363-3.75-5.363c6.853-1.608,7.051-6.603,6.228-11.295L268.054,124.731z"/>
		<g>
			<path style="fill:#407BFF;" d="M268.771,144.918c0,0-7.105,6.311-9.22,21.522c-4.039,29.057,2.084,148.05,2.084,148.05
				s25.975-8.487,35.445-16.625c0.444-8.137-15.281-83.117-13.898-104.639s4.044-40.267,1.267-44.317
				C281.673,144.861,268.771,144.918,268.771,144.918z"/>
			<path style="opacity:0.7;fill:#FFFFFF;" d="M268.771,144.918c0,0-7.105,6.311-9.22,21.522
				c-4.039,29.057,2.084,148.05,2.084,148.05s25.975-8.487,35.445-16.625c0.444-8.137-15.281-83.117-13.898-104.639
				s4.044-40.267,1.267-44.317C281.673,144.861,268.771,144.918,268.771,144.918z"/>
		</g>
		<g>
			<path style="fill:#407BFF;" d="M250.087,145.521c-10.821,13.89-10.736,104.172-7.612,168.969
				c-9.604-1.157-19.872-20.654-19.872-20.654s10.437-68.731,8.43-97.89c-2.008-29.159-1.725-39.305,2.961-44.686
				C238.68,145.88,250.087,145.521,250.087,145.521z"/>
			<path style="opacity:0.7;fill:#FFFFFF;" d="M250.087,145.521c-10.821,13.89-10.736,104.172-7.612,168.969
				c-9.604-1.157-19.872-20.654-19.872-20.654s10.437-68.731,8.43-97.89c-2.008-29.159-1.725-39.305,2.961-44.686
				C238.68,145.88,250.087,145.521,250.087,145.521z"/>
		</g>
		<path style="fill:#FFFFFF;" d="M267.86,144.398c-1.88,1.591-10.752,9.633-9.545,42.566c0.893-3.734,4.955-21.413,9.328-29.831
			c-0.937-0.918-3.008-1.02-3.008-1.02s1.989-1.106,3.811-0.673c1.22-2.458,3.724-7.63,6.154-10.407
			C271.968,143.414,267.86,144.398,267.86,144.398z"/>
		<path style="fill:#FFFFFF;" d="M242.169,186.964c0,0,1.927-30.677,8.291-41.612c-1.562-0.348-4.744-0.532-7.232,1.128
			c-1.331,1.602-3.066,7.753-3.066,9.083c1.707-0.434,3.052,0.333,3.052,0.333s-1.904,0.358-3.139,1.171
			C239.656,159.281,239.46,170.866,242.169,186.964z"/>
		<g>
			<path style="fill:#FFFFFF;" d="M272.839,182.793h-8.587c-0.605,0-1.048-0.584-0.986-1.298l0.358-4.078
				c0.063-0.714,0.609-1.298,1.214-1.298h8.587c0.605,0,1.048,0.584,0.986,1.298l-0.358,4.078
				C273.99,182.209,273.444,182.793,272.839,182.793z"/>
			<polygon style="opacity:0.1;fill:#407BFF;" points="267.808,182.793 265.473,182.793 267.273,176.12 269.609,176.12 			"/>
			<polygon style="opacity:0.1;fill:#407BFF;" points="271.063,182.793 268.727,182.793 270.527,176.12 272.863,176.12 			"/>
			<path style="fill:#407BFF;" d="M268.922,176.824L268.922,176.824c-0.421,0-0.729-0.248-0.686-0.551l0.27-1.875
				c0.044-0.303,0.423-0.551,0.844-0.551l0,0c0.421,0,0.729,0.248,0.686,0.551l-0.27,1.875
				C269.722,176.576,269.342,176.824,268.922,176.824z"/>
		</g>
		<path style="opacity:0.2;" d="M263.059,128.744l-7.251,5.817c0.199,1.11,0.334,2.236,0.33,3.331
			c2.6-0.372,6.344-3.195,6.817-5.888C263.191,130.661,263.231,129.37,263.059,128.744z"/>
		<path style="fill:#CE7A63;" d="M273.21,112.613c-1.832,9.749-2.401,13.903-7.964,18.58c-8.368,7.034-19.865,3.313-20.964-6.627
			c-0.989-8.946,2.173-23.387,12.219-26.606C266.399,94.788,275.042,102.863,273.21,112.613z"/>
		<path style="fill:#FFFFFF;" d="M255.801,120.66c-2.56,0-4.7-2.604-4.798-5.868c-0.047-1.593,0.393-3.108,1.239-4.265
			c0.861-1.176,2.038-1.845,3.313-1.883c0.038-0.001,0.075-0.002,0.112-0.002c2.56,0,4.701,2.603,4.799,5.868c0,0,0,0,0,0
			c0.098,3.313-1.945,6.07-4.554,6.148C255.875,120.66,255.838,120.66,255.801,120.66z M255.669,109.143
			c-0.033,0-0.065,0.001-0.098,0.002c-1.119,0.033-2.157,0.629-2.925,1.678c-0.782,1.068-1.188,2.472-1.144,3.955
			c0.09,3.038,2.093,5.444,4.395,5.382c2.334-0.069,4.159-2.596,4.069-5.633l0,0C259.878,111.532,257.959,109.143,255.669,109.143z"
			/>
		<path style="fill:#FFFFFF;" d="M251.256,114.508c-0.052,0-0.105-0.016-0.148-0.049c-0.009-0.005-0.761-0.555-1.137-0.158
			c-0.094,0.101-0.253,0.105-0.353,0.011c-0.101-0.095-0.105-0.253-0.011-0.354c0.539-0.575,1.384-0.208,1.798,0.1
			c0.11,0.082,0.134,0.239,0.051,0.349C251.407,114.473,251.332,114.508,251.256,114.508z"/>
		<path style="fill:#FFFFFF;" d="M245.377,119.745c-2.561,0-4.701-2.604-4.799-5.868c-0.098-3.313,1.945-6.07,4.553-6.148
			c0.038-0.001,0.075-0.001,0.112-0.001c2.561,0,4.701,2.604,4.799,5.868c0.099,3.312-1.944,6.07-4.553,6.148
			C245.451,119.744,245.414,119.745,245.377,119.745z M245.244,108.227c-0.033,0-0.065,0-0.098,0.001
			c-2.333,0.069-4.158,2.596-4.068,5.633c0.089,2.994,2.008,5.383,4.298,5.383c0.033,0,0.065-0.001,0.098-0.002
			c2.334-0.069,4.159-2.596,4.068-5.633C249.453,110.616,247.534,108.227,245.244,108.227z"/>
		<path style="fill:#263238;" d="M266.401,103.523c-3.994,8.901,2.65,13.017,3.638,15.794c1.393,7.724-16.195,23.055-10.973,47.067
			c7.586-13.422,18.036-12.788,19.135-21.813c1.133-9.304-3.529-14.014,1.417-22.888c4.947-8.874,6.699-19.462-1.987-21.111
			C268.945,98.924,266.401,103.523,266.401,103.523z"/>
		<path style="fill:#263238;" d="M271.667,155.333c-0.068,0-0.136-0.028-0.186-0.082c-0.093-0.102-0.085-0.26,0.018-0.353
			c5.05-4.578,5.435-10.561,5.843-16.895c0.268-4.158,0.544-8.457,2.195-12.492c2.906-7.103,5.314-17.079,2.536-21.814
			c-0.856-1.461-2.166-2.308-3.892-2.519c-0.137-0.017-0.234-0.141-0.218-0.278c0.017-0.137,0.124-0.239,0.278-0.218
			c1.889,0.231,3.323,1.16,4.263,2.762c2.867,4.888,0.586,14.702-2.505,22.257c-1.62,3.959-1.895,8.217-2.159,12.334
			c-0.414,6.438-0.806,12.52-6.006,17.234C271.787,155.312,271.727,155.333,271.667,155.333z"/>
		<path style="fill:#263238;" d="M268.685,104.596c-6.596,0.75-18.243-0.032-20.924-3.416c-2.681-3.384,0.806-12.014,8.561-13.347
			c6.296-1.082,10.079,6.665,10.079,6.665s6.001-2.961,11.23,3.872C282.396,104.596,271.982,111.657,268.685,104.596z"/>
		<path style="fill:#FFFFFF;" d="M271.158,117.355c-0.014,0-0.028-0.001-0.042-0.004l-11.045-1.898
			c-0.137-0.023-0.228-0.153-0.204-0.289c0.022-0.136,0.152-0.229,0.288-0.204l11.045,1.898c0.137,0.023,0.228,0.153,0.204,0.289
			C271.384,117.269,271.278,117.355,271.158,117.355z"/>
		<path style="fill:#263238;" d="M257.767,114.237c-0.118,0.825-0.642,1.462-1.171,1.423c-0.528-0.039-0.86-0.739-0.742-1.564
			c0.118-0.825,0.642-1.462,1.171-1.423C257.553,112.712,257.885,113.412,257.767,114.237z"/>
		<path style="fill:#263238;" d="M247.809,113.65c-0.118,0.825-0.643,1.462-1.171,1.423c-0.528-0.039-0.86-0.739-0.742-1.564
			c0.118-0.825,0.642-1.462,1.171-1.423C247.595,112.125,247.927,112.825,247.809,113.65z"/>
		<path style="fill:#263238;" d="M247.293,112.148l-1.859-0.714C245.434,111.434,246.208,113.055,247.293,112.148z"/>
		<path style="fill:#BA4D3C;" d="M250.385,115.207c0,0-1.881,3.45-3.636,5.052c0.921,1.095,2.801,0.764,2.801,0.764L250.385,115.207
			z"/>
		<path style="fill:#263238;" d="M253.759,124.415c-0.43,0.045-0.887,0.055-1.372,0.019c-0.131-0.01-0.222-0.126-0.202-0.26
			c0.019-0.133,0.137-0.233,0.272-0.225c3.543,0.264,5.565-2.145,5.585-2.169c0.088-0.108,0.24-0.128,0.338-0.047
			c0.099,0.081,0.109,0.234,0.022,0.34C258.324,122.167,256.698,124.108,253.759,124.415z"/>
		<path style="fill:#CE7A63;" d="M272.63,122.479c-1.234,1.863-3.011,2.887-4.556,3.101c-2.325,0.322-2.986-2.38-1.92-4.867
			c0.959-2.238,3.325-5.103,5.456-4.273C273.71,117.258,274.041,120.348,272.63,122.479z"/>
		<path style="fill:#263238;" d="M261.014,110.563c-0.124-0.026-0.234-0.101-0.298-0.217c-1.005-1.814-2.788-1.88-2.808-1.881
			c-0.264-0.009-0.464-0.226-0.438-0.49c0.026-0.264,0.264-0.472,0.533-0.465c0.094,0.003,2.331,0.083,3.578,2.335
			c0.124,0.224,0.031,0.519-0.207,0.658C261.258,110.569,261.13,110.588,261.014,110.563z"/>
		<path style="fill:#263238;" d="M245.917,107.234c-0.12,0.009-0.24-0.026-0.333-0.108c-0.193-0.169-0.2-0.474-0.017-0.68
			c1.84-2.066,4.032-1.849,4.126-1.838c0.262,0.029,0.435,0.268,0.386,0.533c-0.048,0.265-0.299,0.456-0.561,0.428
			c-0.086-0.01-1.79-0.153-3.253,1.49C246.171,107.165,246.044,107.225,245.917,107.234z"/>
		<path style="fill:#263238;" d="M257.251,112.736l-1.859-0.714C255.392,112.021,256.166,113.642,257.251,112.736z"/>
		<path style="fill:#CE7A63;" d="M273.66,216.749l0.708-3.001c0.266-1.128,1.062-2.059,2.135-2.497l5.017-2.048
			c2.006-0.819,4.284-0.616,6.113,0.545l1.133,0.719c-0.834,5.058-5.462,9.909-5.462,9.909l-1.166,1.529
			c-1.039,1.361-2.864,1.651-4.193,0.665l-3.06-2.271C273.828,219.513,273.341,218.101,273.66,216.749z"/>
		<g>
			<path style="fill:#407BFF;" d="M283.395,148.206c0.525,0.346,0.822,0.566,1.205,0.844l1.057,0.792
				c0.692,0.529,1.373,1.05,2.039,1.587c1.332,1.071,2.622,2.177,3.877,3.32c2.515,2.278,4.911,4.688,7.17,7.254
				c2.257,2.567,4.353,5.311,6.26,8.228c0.936,1.472,1.845,2.969,2.652,4.542c0.836,1.553,1.59,3.166,2.263,4.824l0.492,1.25
				l0.064,0.166l0.103,0.305l0.192,0.615c0.1,0.402,0.203,0.819,0.261,1.214c0.255,1.604,0.172,3.064-0.035,4.337
				c-0.43,2.538-1.269,4.48-2.143,6.24c-1.804,3.462-3.842,6.267-5.977,8.929c-2.115,2.664-4.334,5.128-6.583,7.538
				c-1.135,1.195-2.252,2.401-3.411,3.569l-1.752,1.747c-0.603,0.595-1.143,1.15-1.835,1.8l-9.248-11.193
				c0.507-0.35,1.148-0.818,1.719-1.253l1.737-1.379c1.148-0.937,2.301-1.876,3.397-2.869c2.207-1.966,4.297-4.036,6.198-6.158
				c1.859-2.13,3.595-4.354,4.688-6.436c0.546-1.014,0.91-1.999,1.006-2.547c0.043-0.268,0.017-0.388,0.027-0.327
				c0.006,0.008,0.001,0.048,0.018,0.069c0.001,0.02,0.005,0.04,0.013,0.058l0.014,0.026l-0.043-0.107l-0.369-0.928
				c-2.007-4.95-5.24-9.579-9.139-13.673c-1.949-2.05-4.068-3.977-6.317-5.739c-1.125-0.879-2.277-1.724-3.445-2.524
				c-0.585-0.398-1.168-0.795-1.76-1.155l-0.88-0.525c-0.268-0.155-0.625-0.36-0.766-0.422L283.395,148.206z"/>
			<path style="opacity:0.7;fill:#FFFFFF;" d="M283.395,148.206c0.525,0.346,0.822,0.566,1.205,0.844l1.057,0.792
				c0.692,0.529,1.373,1.05,2.039,1.587c1.332,1.071,2.622,2.177,3.877,3.32c2.515,2.278,4.911,4.688,7.17,7.254
				c2.257,2.567,4.353,5.311,6.26,8.228c0.936,1.472,1.845,2.969,2.652,4.542c0.836,1.553,1.59,3.166,2.263,4.824l0.492,1.25
				l0.064,0.166l0.103,0.305l0.192,0.615c0.1,0.402,0.203,0.819,0.261,1.214c0.255,1.604,0.172,3.064-0.035,4.337
				c-0.43,2.538-1.269,4.48-2.143,6.24c-1.804,3.462-3.842,6.267-5.977,8.929c-2.115,2.664-4.334,5.128-6.583,7.538
				c-1.135,1.195-2.252,2.401-3.411,3.569l-1.752,1.747c-0.603,0.595-1.143,1.15-1.835,1.8l-9.248-11.193
				c0.507-0.35,1.148-0.818,1.719-1.253l1.737-1.379c1.148-0.937,2.301-1.876,3.397-2.869c2.207-1.966,4.297-4.036,6.198-6.158
				c1.859-2.13,3.595-4.354,4.688-6.436c0.546-1.014,0.91-1.999,1.006-2.547c0.043-0.268,0.017-0.388,0.027-0.327
				c0.006,0.008,0.001,0.048,0.018,0.069c0.001,0.02,0.005,0.04,0.013,0.058l0.014,0.026l-0.043-0.107l-0.369-0.928
				c-2.007-4.95-5.24-9.579-9.139-13.673c-1.949-2.05-4.068-3.977-6.317-5.739c-1.125-0.879-2.277-1.724-3.445-2.524
				c-0.585-0.398-1.168-0.795-1.76-1.155l-0.88-0.525c-0.268-0.155-0.625-0.36-0.766-0.422L283.395,148.206z"/>
		</g>
	</g>
</g>
<g id="Counter">
	<g>
		<g>
			<g>
				<rect x="105.889" y="246.355" style="fill:#407BFF;" width="296.691" height="12.054"/>
				<rect x="105.889" y="246.355" style="opacity:0.6;fill:#FFFFFF;" width="296.691" height="12.054"/>
				<rect x="376.612" y="246.355" style="opacity:0.3;fill:#407BFF;" width="25.968" height="12.054"/>
			</g>
			<g>
				<rect x="111.174" y="258.409" style="fill:#407BFF;" width="286.12" height="156.591"/>
				<rect x="111.174" y="258.409" style="opacity:0.5;fill:#FFFFFF;" width="286.12" height="156.591"/>
				<rect x="381.897" y="258.409" style="opacity:0.3;fill:#407BFF;" width="15.397" height="156.591"/>
				<rect x="111.174" y="258.409" style="opacity:0.3;fill:#407BFF;" width="286.12" height="3.97"/>
			</g>
		</g>
		<g>
			<circle style="opacity:0.3;fill:#407BFF;" cx="246.952" cy="332.699" r="42.138"/>
			<circle style="fill:#407BFF;" cx="244.241" cy="332.699" r="42.138"/>
			<circle style="fill:#FFFFFF;" cx="242.885" cy="332.699" r="42.138"/>
			<path style="fill:#407BFF;" d="M247.185,357.898h-8.6c-1.575,0-2.851-1.277-2.851-2.851v-44.695c0-1.575,1.277-2.851,2.851-2.851
				h8.6c1.575,0,2.851,1.277,2.851,2.851v44.695C250.036,356.621,248.76,357.898,247.185,357.898z"/>
			<path style="fill:#407BFF;" d="M217.686,336.999v-8.6c0-1.575,1.277-2.851,2.851-2.851h44.695c1.575,0,2.851,1.277,2.851,2.851
				v8.6c0,1.575-1.277,2.851-2.851,2.851h-44.695C218.963,339.85,217.686,338.573,217.686,336.999z"/>
		</g>
	</g>
	<g>
		<g>
			<polygon style="fill:#407BFF;" points="384.367,239.689 307.333,239.689 317.299,191.67 394.332,191.67 			"/>
			<polygon style="opacity:0.3;fill:#FFFFFF;" points="384.367,239.689 307.333,239.689 317.299,191.67 394.332,191.67 			"/>
		</g>
		<polygon style="opacity:0.3;fill:#FFFFFF;" points="366.876,227.747 334.552,227.747 338.841,207.081 371.165,207.081 		"/>
		<polygon style="opacity:0.3;fill:#407BFF;" points="332.622,227.747 334.552,227.747 338.841,207.081 336.911,207.081 		"/>
		<polygon style="opacity:0.3;fill:#407BFF;" points="351.785,218.346 345.993,218.346 346.862,239.689 352.654,239.689 		"/>
		<polygon style="opacity:0.7;fill:#FFFFFF;" points="308.633,239.689 307.333,239.689 317.299,191.67 318.598,191.67 		"/>
		<g>
			<polygon style="fill:#407BFF;" points="351.785,246.355 365.709,246.355 360.752,217.414 346.828,217.414 			"/>
			<polygon style="opacity:0.2;fill:#FFFFFF;" points="351.785,246.355 365.709,246.355 360.752,217.414 346.828,217.414 			"/>
		</g>
		<g>
			<polygon style="fill:#407BFF;" points="350.535,246.355 351.785,246.355 346.828,217.414 345.578,217.414 			"/>
			<polygon style="opacity:0;fill:#FFFFFF;" points="350.535,246.355 351.785,246.355 346.828,217.414 345.578,217.414 			"/>
		</g>
		<polygon style="fill:#407BFF;" points="351.122,244.707 340.263,244.707 337.418,246.355 351.122,246.355 		"/>
	</g>
	<g>
		<rect x="190.232" y="226.142" style="fill:#407BFF;" width="18.417" height="20.214"/>
		<polygon style="fill:#407BFF;" points="197.667,226.142 208.649,226.142 211.899,221.222 200.917,221.222 		"/>
		
			<rect x="190.232" y="226.142" transform="matrix(-1 -1.224647e-16 1.224647e-16 -1 391.4459 472.4973)" style="opacity:0.3;fill:#FFFFFF;" width="10.982" height="20.214"/>
		<rect x="194.168" y="233.282" style="opacity:0.3;fill:#FFFFFF;" width="14.481" height="8.994"/>
		<g>
			<polygon style="fill:#407BFF;" points="201.214,226.142 190.232,226.142 186.982,221.222 197.964,221.222 			"/>
			<polygon style="opacity:0.3;fill:#FFFFFF;" points="201.214,226.142 190.232,226.142 186.982,221.222 197.964,221.222 			"/>
		</g>
	</g>
</g>
</svg>
