<?xml version="1.0" encoding="utf-8"?>
<!-- Generator: Adobe Illustrator 27.5.0, SVG Export Plug-In . SVG Version: 6.00 Build 0)  -->
<svg version="1.1" xmlns="http://www.w3.org/2000/svg" xmlns:xlink="http://www.w3.org/1999/xlink" x="0px" y="0px"
	 viewBox="0 0 500 500" style="enable-background:new 0 0 500 500;" xml:space="preserve">
<g id="BACKGROUND">
	<g>
		<rect style="fill:#122D21;" width="500" height="500"/>
	</g>
</g>
<g id="OBJECTS">
	<g>
		<path style="fill:#99DEC0;" d="M427.965,401.711v11.612c0,6.739-5.463,12.202-12.202,12.202h-47.571
			c0.952,0,1.95-0.119,2.962-0.372c5.12-1.324,8.9-5.968,8.9-11.49v-11.951H427.965z"/>
		<path style="fill:#99DEC0;" d="M356.345,344.311v21.094h-21.611v-21.525c0-2.992,1.206-5.686,3.17-7.635
			c1.95-1.95,4.659-3.155,7.636-3.155c0.059,0,0.104,0,0.163,0.015h0.164c0.253,0,0.506,0.015,0.744,0.045
			c0.059,0,0.104,0,0.149,0.015c0.298,0.03,0.595,0.074,0.878,0.134c0.104,0.015,0.208,0.044,0.313,0.074
			c0.223,0.045,0.447,0.104,0.67,0.179c0.194,0.045,0.402,0.119,0.595,0.194c0.104,0.015,0.194,0.059,0.268,0.104
			C353.562,335.5,356.345,339.682,356.345,344.311z"/>
		<path style="fill:#FFFFFF;" d="M415.255,382.815v18.897h-35.2v11.951c0,5.522-3.781,10.166-8.9,11.49
			c-1.012,0.253-2.01,0.372-2.962,0.372c-6.549,0-11.848-5.313-11.848-11.862v-69.352c0-4.629-2.783-8.811-6.861-10.463
			c-0.074-0.045-0.164-0.089-0.268-0.104c-0.194-0.089-0.387-0.149-0.595-0.194c-0.223-0.089-0.447-0.149-0.67-0.179
			c-0.104-0.03-0.208-0.059-0.313-0.074c-0.283-0.06-0.58-0.104-0.878-0.134c-0.045-0.015-0.089-0.015-0.149-0.015
			c-0.074-0.015-0.149-0.03-0.223-0.03c-0.164-0.015-0.342-0.03-0.521-0.015c-0.06-0.015-0.104-0.015-0.164-0.015h56.871
			c7.01,0,12.681,5.671,12.681,12.681v15.471"/>
		<polygon style="fill:#68B89A;" points="385.148,351.3 378.714,351.3 378.714,344.866 371.043,344.866 371.043,351.3 364.61,351.3 
			364.61,358.971 371.043,358.971 371.043,365.405 378.714,365.405 378.714,358.971 385.148,358.971 		"/>
		<g>
			<g>
				<g>
					<path style="fill:#325A44;" d="M441.469,384.34c-1.66,3.54-5.17,5.62-8.84,5.62c-1.39,0-2.8-0.3-4.14-0.93l-12.4-5.82
						l-12.39-5.82c-4.88-2.29-6.98-8.11-4.69-12.99c1.66-3.54,5.18-5.62,8.85-5.62c1.39,0,2.8,0.3,4.14,0.93l12.39,5.82l12.4,5.82
						C441.669,373.64,443.769,379.46,441.469,384.34z"/>
				</g>
			</g>
			<path style="fill:#68B89A;" d="M441.469,384.34c-1.66,3.54-5.17,5.62-8.84,5.62c-1.39,0-2.8-0.3-4.14-0.93l-12.4-5.82l8.3-17.68
				l12.4,5.82C441.669,373.64,443.769,379.46,441.469,384.34z"/>
		</g>
		<rect x="364.61" y="373.186" style="opacity:0.5;fill:#99DEC0;" width="25.521" height="4.129"/>
		<rect x="364.61" y="380.801" style="opacity:0.5;fill:#99DEC0;" width="25.521" height="4.129"/>
		<rect x="364.61" y="388.415" style="opacity:0.5;fill:#99DEC0;" width="25.521" height="4.129"/>
	</g>
	<g>
		<g>
			<path style="fill:#99DEC0;" d="M244.262,373.67v48.06c0,4.41-3.58,7.99-7.99,7.99h-35.51c-4.42,0-8-3.58-8-7.99v-48.06
				l9.48-17.73h32.54L244.262,373.67z"/>
			<rect x="192.766" y="385.957" style="fill:#FFFFFF;" width="12.177" height="28.864"/>
			<rect x="215.67" y="385.957" style="fill:#FFFFFF;" width="28.591" height="28.864"/>
			<path style="fill:#68B89A;" d="M231.425,404.365c0,2.72-2.205,4.924-4.924,4.924c-2.72,0-4.924-2.205-4.924-4.924
				s2.205-4.924,4.924-4.924C229.22,399.441,231.425,401.646,231.425,404.365z"/>
			<rect x="202.244" y="348.356" style="fill:#FFFFFF;" width="32.524" height="7.586"/>
			
				<line style="fill:none;stroke:#6CB99B;stroke-width:2;stroke-linecap:round;stroke-linejoin:round;stroke-miterlimit:10;" x1="209.522" y1="348.356" x2="209.522" y2="355.943"/>
			
				<line style="fill:none;stroke:#6CB99B;stroke-width:2;stroke-linecap:round;stroke-linejoin:round;stroke-miterlimit:10;" x1="215.511" y1="348.356" x2="215.511" y2="355.943"/>
			
				<line style="fill:none;stroke:#6CB99B;stroke-width:2;stroke-linecap:round;stroke-linejoin:round;stroke-miterlimit:10;" x1="221.501" y1="348.356" x2="221.501" y2="355.943"/>
			
				<line style="fill:none;stroke:#6CB99B;stroke-width:2;stroke-linecap:round;stroke-linejoin:round;stroke-miterlimit:10;" x1="227.49" y1="348.356" x2="227.49" y2="355.943"/>
			<rect x="202.244" y="342.205" style="fill:#99DEC0;" width="32.524" height="6.151"/>
			<polygon style="fill:#68B89A;" points="244.262,373.67 192.762,373.67 202.242,355.94 234.782,355.94 			"/>
		</g>
		<g>
			<path style="fill:#68B89A;" d="M281.466,418.087c0.311-4.308-0.483-8.596-2.278-12.495l9.6-5.081
				c2.267,3.726,5.497,6.75,9.232,9.032c1.61,0.982,3.002,2.4,3.952,4.194c2.52,4.76,1.152,10.538-2.979,13.713
				c-0.409,0.319-0.833,0.608-1.289,0.862l-0.271,0.143c-0.2,0.106-0.411,0.217-0.617,0.314c-0.166,0.075-0.331,0.15-0.508,0.204
				c-0.432,0.177-0.86,0.314-1.314,0.426c-0.393,0.105-0.812,0.186-1.222,0.236c-4.217,0.539-8.57-1.455-10.813-5.257
				C281.779,422.385,281.327,420.2,281.466,418.087z"/>
			<path style="fill:#99DEC0;" d="M269.854,404.657c-1.347-2.545-0.38-5.687,2.155-7.029l14.23-7.532
				c1.263-0.668,2.686-0.767,3.957-0.376c1.272,0.391,2.393,1.273,3.067,2.546c1.342,2.535,0.375,5.677-2.16,7.019l-14.23,7.532
				c-1.263,0.668-2.685,0.767-3.957,0.376C271.643,406.802,270.522,405.92,269.854,404.657z"/>
			<path style="fill:#FFFFFF;" d="M272.97,397.119l-21.89-41.356c-1.268-2.395-0.998-5.206,0.465-7.289l-7.924-14.971
				c-0.811-1.533-0.227-3.434,1.307-4.245c1.533-0.811,3.434-0.227,4.245,1.307l7.924,14.971c2.545-0.039,5.031,1.314,6.299,3.709
				l21.89,41.356L272.97,397.119z"/>
		</g>
	</g>
	<g>
		<g>
			<path style="fill:#FFFFFF;" d="M439.172,212.415l-5.13,5.8l-35.44,40.01c-2.89,3.2-7.77,3.61-11.16,0.94l-11.24-8.85
				c-3.39-2.67-4.14-7.51-1.7-11.07l30.58-43.84l4.43-6.35L439.172,212.415z"/>
			
				<rect x="370.679" y="253.775" transform="matrix(0.7857 0.6187 -0.6187 0.7857 241.9735 -178.3909)" style="fill:#99DEC0;" width="15.509" height="12.474"/>
			<polygon style="fill:#68B89A;" points="439.172,212.415 434.042,218.215 405.082,195.405 409.512,189.055 			"/>
			<path style="fill:#99DEC0;" d="M397.718,205.961l15.427,12.148c2.008,1.581,2.355,4.501,0.774,6.509l-15.003,19.053
				c-1.581,2.008-4.501,2.355-6.509,0.774l-13.905-10.95L397.718,205.961z"/>
			<path style="fill:#FFFFFF;" d="M396.621,237.172c-1.054,1.339-2.994,1.57-4.333,0.515c-1.339-1.054-1.57-2.994-0.515-4.333
				c1.054-1.339,2.995-1.57,4.333-0.515C397.445,233.893,397.676,235.833,396.621,237.172z"/>
		</g>
		<path style="fill:#325A44;" d="M371.892,269.515H351.14c-7.277,0-13.175,5.899-13.175,13.175l0,0h20.752
			C365.993,282.69,371.892,276.791,371.892,269.515L371.892,269.515z"/>
	</g>
	<g>
		<g>
			<polygon style="fill:#325A44;" points="123.743,429.721 148.305,429.721 140.213,355.989 128.13,355.989 			"/>
		</g>
		<g>
			<path style="fill:#99DEC0;" d="M132.647,351.228v4.762h-5.452v-4.762c0-9.314-7.57-16.883-16.884-16.883
				s-16.883,7.569-16.883,16.883v4.762h-5.452v-4.762c0-12.313,10.014-22.336,22.336-22.336
				C122.624,328.892,132.647,338.915,132.647,351.228z"/>
			<polygon style="fill:#68B89A;" points="128.131,355.99 123.742,429.721 62.114,429.721 66.503,355.99 			"/>
			<path style="fill:#FFFFFF;" d="M117.199,351.228v4.762h-5.452v-4.762c0-9.314-7.57-16.883-16.884-16.883
				s-16.883,7.569-16.883,16.883v4.762h-5.452v-4.762c0-12.313,10.014-22.336,22.336-22.336
				C107.176,328.892,117.199,338.915,117.199,351.228z"/>
		</g>
		<polygon style="fill:#99DEC0;" points="113.787,407.67 107.941,407.67 107.941,401.824 100.97,401.824 100.97,407.67 
			95.124,407.67 95.124,414.641 100.97,414.641 100.97,420.487 107.941,420.487 107.941,414.641 113.787,414.641 		"/>
		<g>
			<rect x="76.163" y="365.405" style="fill:#FFFFFF;" width="18.961" height="24.948"/>
			
				<line style="fill:none;stroke:#6CB99B;stroke-width:2;stroke-miterlimit:10;" x1="80.205" y1="370.623" x2="91.082" y2="370.623"/>
			
				<line style="fill:none;stroke:#6CB99B;stroke-width:2;stroke-miterlimit:10;" x1="80.205" y1="375.657" x2="91.082" y2="375.657"/>
			
				<line style="fill:none;stroke:#6CB99B;stroke-width:2;stroke-miterlimit:10;" x1="80.205" y1="380.691" x2="91.082" y2="380.691"/>
		</g>
	</g>
	<g>
		<g>
			<path style="fill:#FFFFFF;" d="M148.81,222.901v49.41c0,3.59-2.91,6.5-6.5,6.5h-18.94c-3.59,0-6.5-2.91-6.5-6.5v-49.41
				l6.88-17.83h18.18L148.81,222.901z"/>
			<polygon style="opacity:0.5;fill:#99DEC0;" points="148.81,222.901 116.87,222.901 123.75,205.071 141.93,205.071 			"/>
			<rect x="116.785" y="260.18" style="fill:#68B89A;" width="32.025" height="8.207"/>
			<rect x="123.76" y="195.701" style="fill:#325A44;" width="18.18" height="9.37"/>
			<path style="fill:#99DEC0;" d="M144.048,241.809c0,2.457-1.992,4.448-4.448,4.448c-2.457,0-4.448-1.992-4.448-4.448
				c0-2.457,4.448-7.876,4.448-7.876S144.048,239.353,144.048,241.809z"/>
		</g>
		<g>
			<g>
				<path style="fill:#99DEC0;" d="M110.66,215.871v62.94H61.61v-62.94c0-0.2,0.01-0.4,0.01-0.59c0.31-5.53,4.89-9.9,10.48-9.9
					h28.07C105.96,205.381,110.66,210.071,110.66,215.871z"/>
				<path style="fill:#68B89A;" d="M103.86,206.381l-42.24,8.9c0.31-5.53,4.89-9.9,10.48-9.9h24.41L103.86,206.381z"/>
				<path style="fill:#FFFFFF;" d="M95.13,230.571v32.43H61.61v-40.11h25.85C91.69,222.891,95.13,226.331,95.13,230.571z"/>
				<path style="fill:#99DEC0;" d="M103.861,206.378H68.409c-3.755,0-6.799-3.044-6.799-6.798l0,0c0-3.755,3.044-6.798,6.799-6.798
					h35.452c3.755,0,6.798,3.044,6.798,6.798l0,0C110.659,203.335,107.615,206.378,103.861,206.378z"/>
				<path style="fill:#325A44;" d="M87.725,251.435c0,3.034-2.46,5.494-5.494,5.494c-3.034,0-5.494-2.46-5.494-5.494
					c0-3.034,2.46-5.494,5.494-5.494C85.265,245.941,87.725,248.401,87.725,251.435z"/>
				<rect x="61.61" y="230.161" style="opacity:0.5;fill:#99DEC0;" width="26.12" height="8.93"/>
			</g>
			<g>
				<path style="fill:#68B89A;" d="M100.146,278.963h27.142v-32.597c0-4.045-3.279-7.324-7.324-7.324H107.47
					c-4.045,0-7.324,3.279-7.324,7.324V278.963z"/>
				
					<rect x="106.733" y="233.098" transform="matrix(-1 -1.224647e-16 1.224647e-16 -1 227.4338 472.1406)" style="fill:#325A44;" width="13.969" height="5.944"/>
				<path style="fill:#99DEC0;" d="M111.591,268.361h15.697v-17.886h-15.697c-2.215,0-4.011,1.796-4.011,4.011v9.864
					C107.579,266.565,109.375,268.361,111.591,268.361z"/>
			</g>
		</g>
	</g>
	<g>
		<path style="fill:#325A44;" d="M406.779,75.803v16.421h-5.63v-16.04h-25.16v16.04h-5.63V75.803c0-2.589,2.099-4.688,4.689-4.688
			h27.043C404.68,71.115,406.779,73.214,406.779,75.803z"/>
		<polyline style="fill:#68B89A;" points="415.803,104.77 425.755,104.77 425.755,151.027 351.381,151.027 351.381,104.77 
			361.334,104.77 		"/>
		<polygon style="fill:#99DEC0;" points="399.823,123.688 392.76,123.688 392.76,116.626 384.34,116.626 384.34,123.688 
			377.277,123.688 377.277,132.109 384.34,132.109 384.34,139.171 392.76,139.171 392.76,132.109 399.823,132.109 		"/>
		
			<line style="fill:none;stroke:#6CB99B;stroke-width:2;stroke-linecap:round;stroke-linejoin:round;stroke-miterlimit:10;" x1="369.692" y1="104.77" x2="407.446" y2="104.77"/>
		<path style="fill:#325A44;" d="M439.684,113.727v25.713c0,6.399-5.188,11.587-11.596,11.587h-2.333v-37.299H439.684z"/>
		<path style="fill:#325A44;" d="M351.381,113.727v37.299h-2.333c-6.408,0-11.596-5.188-11.596-11.587v-25.713H351.381z"/>
		<path style="fill:#99DEC0;" d="M361.334,104.77h-9.989V94.404c0-5.385,4.362-9.738,9.747-9.738h54.926
			c5.376,0,9.738,4.353,9.738,9.738v10.366h-9.952"/>
		<rect x="361.979" y="97.08" style="fill:#FFFFFF;" width="8.358" height="15.38"/>
		<rect x="406.763" y="97.08" style="fill:#FFFFFF;" width="8.358" height="15.38"/>
	</g>
	<g>
		<path style="fill:#99DEC0;" d="M292.37,218.864v11.96h-88.74v-11.96c0-7,5.52-12.72,12.45-13.05c0.21-0.01,0.42-0.02,0.63-0.02
			h13.55v16.01h35.48v-16.01h13.56c0.21,0,0.42,0,0.62,0.02C286.85,206.134,292.37,211.864,292.37,218.864z"/>
		<rect x="210.069" y="230.818" style="fill:#FFFFFF;" width="75.863" height="40.235"/>
		<g>
			<rect x="259.191" y="242.748" style="fill:#99DEC0;" width="6.636" height="6.636"/>
			<rect x="268.827" y="242.748" style="fill:#99DEC0;" width="6.636" height="6.636"/>
			<rect x="259.191" y="252.083" style="fill:#99DEC0;" width="6.636" height="6.636"/>
			<rect x="268.827" y="252.083" style="fill:#99DEC0;" width="6.636" height="6.636"/>
		</g>
		<g>
			<rect x="220.3" y="239.748" style="fill:#325A44;" width="27.309" height="31.305"/>
		</g>
		<rect x="220.3" y="239.748" style="opacity:0.5;fill:#68B89A;" width="13.655" height="31.305"/>
		<g>
			<g>
				<path style="fill:#6CB99B;" d="M218.08,205.794v25.03h-2v-25.01c0.21-0.01,0.42-0.02,0.63-0.02H218.08z"/>
			</g>
			<g>
				<path style="fill:#6CB99B;" d="M279.92,205.814v25.01h-2v-25.03h1.38C279.51,205.794,279.72,205.794,279.92,205.814z"/>
			</g>
			<g>
				<g>
					<path style="fill:#6CB99B;" d="M232.26,223.084v7.74h-2v-7.74c0-0.52,0.15-0.98,0.37-1.28c0.17-0.23,0.39-0.37,0.63-0.37
						c0.24,0,0.46,0.14,0.63,0.37C232.11,222.104,232.26,222.564,232.26,223.084z"/>
				</g>
				<g>
					<path style="fill:#6CB99B;" d="M265.74,222.944v7.88h-2v-7.88c0-0.44,0.1-0.84,0.27-1.14c0.19-0.32,0.44-0.52,0.73-0.52
						c0.29,0,0.54,0.2,0.73,0.52C265.64,222.104,265.74,222.504,265.74,222.944z"/>
				</g>
			</g>
			<g>
				<path style="fill:#6CB99B;" d="M249,222.944v7.88h-2v-7.88c0-0.44,0.1-0.84,0.27-1.14c0.19-0.32,0.44-0.52,0.73-0.52
					s0.54,0.2,0.73,0.52C248.9,222.104,249,222.504,249,222.944z"/>
			</g>
		</g>
		<rect x="230.262" y="190.26" style="fill:#FFFFFF;" width="35.478" height="31.545"/>
		<polygon style="fill:#68B89A;" points="256.191,202.973 251.06,202.973 251.06,197.841 244.941,197.841 244.941,202.973 
			239.81,202.973 239.81,209.091 244.941,209.091 244.941,214.223 251.06,214.223 251.06,209.091 256.191,209.091 		"/>
		<path style="fill:#99DEC0;" d="M287.154,281.485h-78.306c-2.881,0-5.216-2.335-5.216-5.216l0,0c0-2.881,2.335-5.216,5.216-5.216
			h78.306c2.881,0,5.216,2.335,5.216,5.216l0,0C292.37,279.15,290.034,281.485,287.154,281.485z"/>
		<polygon style="opacity:0.3;fill:#99DEC0;" points="210.069,230.818 285.932,238.698 285.932,230.818 		"/>
	</g>
	<g>
		<g>
			<g>
				<path style="fill:#99DEC0;" d="M227.909,110.906v34.22c0,3.3-2.67,5.98-5.98,5.98h-11.52c-3.3,0-5.98-2.68-5.98-5.98v-34.22
					c0-1.29,0.4-2.48,1.1-3.45l0.04-0.06l5.93-9.26c-2.1-1.47-3.48-3.92-3.48-6.68c0-2.76,1.38-5.21,3.48-6.68v-9.07
					c0-2.58,2.09-4.67,4.67-4.67c2.59,0,4.68,2.09,4.68,4.67v9.08c2.1,1.47,3.47,3.91,3.47,6.67c0,2.76-1.37,5.2-3.47,6.67v0.21
					l5.41,8.45C227.279,107.856,227.909,109.296,227.909,110.906z"/>
				
					<line style="fill:none;stroke:#6CB99B;stroke-width:2;stroke-miterlimit:10;" x1="212.578" y1="124.055" x2="227.91" y2="124.055"/>
				
					<line style="fill:none;stroke:#6CB99B;stroke-width:2;stroke-miterlimit:10;" x1="212.578" y1="133.01" x2="227.91" y2="133.01"/>
			</g>
			<g>
				<path style="fill:#FFFFFF;" d="M259.739,110.906v34.22c0,3.3-2.67,5.98-5.98,5.98h-11.52c-3.3,0-5.98-2.68-5.98-5.98v-34.22
					c0-1.29,0.4-2.48,1.1-3.45l0.04-0.06l5.93-9.26c-2.1-1.47-3.48-3.92-3.48-6.68c0-2.76,1.38-5.21,3.48-6.68v-9.07
					c0-2.58,2.09-4.67,4.67-4.67c2.59,0,4.68,2.09,4.68,4.67v9.08c2.1,1.47,3.47,3.91,3.47,6.67c0,2.76-1.37,5.2-3.47,6.67v0.21
					l5.41,8.45C259.109,107.856,259.739,109.296,259.739,110.906z"/>
				
					<line style="fill:none;stroke:#6CB99B;stroke-width:2;stroke-miterlimit:10;" x1="244.408" y1="124.055" x2="259.74" y2="124.055"/>
				
					<line style="fill:none;stroke:#6CB99B;stroke-width:2;stroke-miterlimit:10;" x1="244.408" y1="133.01" x2="259.74" y2="133.01"/>
			</g>
			<g>
				<path style="fill:#99DEC0;" d="M291.569,110.906v34.22c0,3.3-2.67,5.98-5.98,5.98h-11.52c-3.3,0-5.98-2.68-5.98-5.98v-34.22
					c0-1.29,0.4-2.48,1.1-3.45l0.04-0.06l5.93-9.26c-2.1-1.47-3.48-3.92-3.48-6.68c0-2.76,1.38-5.21,3.48-6.68v-9.07
					c0-2.58,2.09-4.67,4.67-4.67c2.59,0,4.68,2.09,4.68,4.67v9.08c2.1,1.47,3.47,3.91,3.47,6.67c0,2.76-1.37,5.2-3.47,6.67v0.21
					l5.41,8.45C290.939,107.856,291.569,109.296,291.569,110.906z"/>
				
					<line style="fill:none;stroke:#6CB99B;stroke-width:2;stroke-miterlimit:10;" x1="276.239" y1="124.055" x2="291.571" y2="124.055"/>
				
					<line style="fill:none;stroke:#6CB99B;stroke-width:2;stroke-miterlimit:10;" x1="276.239" y1="133.01" x2="291.571" y2="133.01"/>
			</g>
		</g>
		<path style="opacity:0.5;fill:#68B89A;" d="M227.909,110.906v0.16h-23.48v-0.16c0-1.29,0.4-2.48,1.1-3.45l0.04-0.06l5.93-9.26
			h9.35v0.2l5.41,8.45C227.279,107.856,227.909,109.296,227.909,110.906z"/>
		<path style="opacity:0.3;fill:#99DEC0;" d="M259.739,110.906v0.16h-23.48v-0.16c0-1.29,0.4-2.48,1.1-3.45l0.04-0.06l5.93-9.26
			h9.35v0.2l5.41,8.45C259.109,107.856,259.739,109.296,259.739,110.906z"/>
		<path style="opacity:0.5;fill:#68B89A;" d="M291.569,110.906v0.16h-23.48v-0.16c0-1.29,0.4-2.48,1.1-3.45l0.04-0.06l5.93-9.26
			h9.35v0.2l5.41,8.45C290.939,107.856,291.569,109.296,291.569,110.906z"/>
	</g>
	<g>
		<circle style="fill:#325A44;" cx="134.327" cy="116.299" r="15.69"/>
		<g>
			<path style="fill:#99DEC0;" d="M131.642,144.968h-6.911v-20.284h6.911c2.258,0,4.089,1.831,4.089,4.089v12.105
				C135.731,143.137,133.9,144.968,131.642,144.968z"/>
			<path style="fill:#FFFFFF;" d="M124.733,120.85v27.95h-38.32c-6.64,0-12.43-4.53-14.01-10.98l-12-48.91l3.72-0.91l14.71-3.61
				l4.99-1.23l3.72-0.91l9.48,38.6H124.733z"/>
			<path style="opacity:0.3;fill:#99DEC0;" d="M97.023,120.85h-9.856c-4.603,0-8.334-3.731-8.334-8.334V84.389l4.99-1.23l3.72-0.91
				L97.023,120.85z"/>
			<path style="fill:#68B89A;" d="M83.82,83.161l-19.7,4.84l-1.65-6.71c-0.54-2.19,0.81-4.41,3-4.95l11.76-2.88
				c2.19-0.54,4.4,0.8,4.94,2.99L83.82,83.161z"/>
			<path style="fill:#68B89A;" d="M108.238,128.462H97.236c-2.578,0-4.668,2.09-4.668,4.668v15.67h20.338v-15.67
				C112.906,130.551,110.816,128.462,108.238,128.462z"/>
			<circle style="fill:#325A44;" cx="105.075" cy="136.136" r="3.777"/>
		</g>
		<circle style="fill:#325A44;" cx="115.191" cy="91.435" r="7.764"/>
	</g>
</g>
</svg>
