<?xml version="1.0" encoding="utf-8"?>
<!-- Generator: Adobe Illustrator 27.5.0, SVG Export Plug-In . SVG Version: 6.00 Build 0)  -->
<svg version="1.1" xmlns="http://www.w3.org/2000/svg" xmlns:xlink="http://www.w3.org/1999/xlink" x="0px" y="0px"
	 viewBox="0 0 500 500" style="enable-background:new 0 0 500 500;" xml:space="preserve">
<g id="Floor">
	<path id="Floor_00000086683671292892460420000015505704332677015997_" style="fill:#F5F5F5;" d="M77.668,431.773
		c-95.176-54.951-95.176-144.042,0-198.991c95.176-54.949,249.487-54.949,344.663,0c95.176,54.949,95.176,144.041,0,198.991
		C327.155,486.723,172.844,486.723,77.668,431.773z"/>
</g>
<g id="Shadows">
	<path id="Shadow_00000026142168107163122210000000621592047599750534_" style="fill:#E0E0E0;" d="M50.322,313.509l1.893,1.093
		c14.348,8.286,35.983,13.042,48.324,10.624c12.341-2.419,35.534-6.921,51.804-10.052c14.433-2.778,31.768-6.113,46.201-8.89
		c16.27-3.13,17.828-12.384,3.479-20.668l-1.749-1.01c-14.349-8.284-39.171-12.464-55.441-9.336l-37.459,7.202
		c-16.271,3.128-41.451,7.987-56.245,10.85C36.336,296.185,35.974,305.223,50.322,313.509z"/>
	<path id="Shadow_00000098899750149037372310000003642695382303095434_" style="opacity:0.1;" d="M401.603,310.312
		c-36.3,20.959-95.153,20.959-131.453,0.001c-36.3-20.958-36.299-54.937,0.001-75.895c36.299-20.958,95.152-20.958,131.452,0
		C437.903,255.376,437.902,289.354,401.603,310.312z"/>
	<path id="Shadow_00000132793190496090816290000001500535934278907569_" style="fill:#E0E0E0;" d="M144.952,407.103l-42.722,24.654
		c-15.184,8.764-40.603,9.551-56.788,1.764c-8.43-4.052-12.681-9.638-12.681-15.296c0-5.204,3.599-10.473,10.87-14.668
		l47.593-27.474c3.8-2.194,9.962-2.195,13.762-0.001l39.967,23.074C148.753,401.352,148.753,404.909,144.952,407.103z"/>
	<path id="Shadow_00000147196551787488821680000012466354210809451452_" style="fill:#E0E0E0;" d="M158.229,336.324l42.722-24.654
		c15.184-8.764,40.602-9.551,56.788-1.764c8.43,4.052,12.681,9.638,12.681,15.296c0,5.204-3.6,10.473-10.87,14.668l-47.593,27.473
		c-3.8,2.195-9.962,2.195-13.762,0.001l-39.967-23.074C154.429,342.075,154.429,338.518,158.229,336.324z"/>
	<path id="Shadow_00000064350374877870751110000016979900106728529563_" style="fill:#E0E0E0;" d="M236.317,387.13
		c21.257,12.273,55.72,12.273,76.977,0.001c21.257-12.272,21.256-32.171-0.001-44.443c-21.256-12.272-55.719-12.272-76.976,0
		C215.061,354.96,215.061,374.857,236.317,387.13z"/>
	<g id="Shadows_00000060738629739577093890000010668060870036569018_">
		<path id="Shadow_00000046335649288422328670000008423788876082367624_" style="fill:#E0E0E0;" d="M204.32,438.395
			c4.739,2.736,12.421,2.736,17.16,0c4.739-2.736,4.738-7.172,0-9.907c-4.739-2.736-12.421-2.736-17.16,0
			S199.581,435.659,204.32,438.395z"/>
		<path id="Shadow_00000063623575683720234090000016629320928916197559_" style="fill:#E0E0E0;" d="M185.919,430.852
			c4.739,2.736,12.421,2.736,17.16,0c4.739-2.736,4.738-7.172,0-9.907c-4.738-2.736-12.421-2.736-17.16,0
			C181.18,423.68,181.18,428.116,185.919,430.852z"/>
		<path id="Shadow_00000127045425474502441540000014809607297442245298_" style="fill:#E0E0E0;" d="M190.966,400.576
			c4.739,2.736,12.421,2.736,17.16,0c4.739-2.736,4.738-7.172,0-9.907c-4.739-2.736-12.421-2.736-17.16,0
			C186.227,393.404,186.227,397.84,190.966,400.576z"/>
		<path id="Shadow_00000019656668542238226950000008224397797966108819_" style="fill:#E0E0E0;" d="M156.493,404.194
			c4.739,2.736,12.421,2.736,17.16,0c4.739-2.736,4.738-7.172,0-9.907c-4.738-2.736-12.421-2.736-17.16,0
			S151.754,401.459,156.493,404.194z"/>
		<path id="Shadow_00000013181414504920901040000001630668002023886228_" style="fill:#E0E0E0;" d="M157.159,367.26
			c4.739,2.736,12.421,2.736,17.16,0c4.739-2.736,4.738-7.172,0-9.907c-4.738-2.736-12.421-2.736-17.16,0
			C152.421,360.089,152.421,364.524,157.159,367.26z"/>
		<path id="Shadow_00000089534068576884046480000011591296365307971511_" style="fill:#E0E0E0;" d="M141.014,354.207
			c4.739,2.736,12.421,2.736,17.16,0c4.739-2.736,4.739-7.172,0-9.907c-4.739-2.736-12.421-2.736-17.16,0
			C136.275,347.036,136.276,351.471,141.014,354.207z"/>
		<path id="Shadow_00000149376753056131621820000001458919731410318249_" style="fill:#E0E0E0;" d="M125.859,384.352
			c4.739,2.736,12.421,2.736,17.16,0c4.739-2.736,4.738-7.172,0-9.907c-4.738-2.736-12.421-2.736-17.16,0
			S121.121,381.616,125.859,384.352z"/>
		<path id="Shadow_00000148660053170865664590000013846275875582353068_" style="fill:#E0E0E0;" d="M139.222,414.031
			c4.739,2.736,12.421,2.736,17.16,0c4.739-2.736,4.738-7.172,0-9.907c-4.738-2.736-12.421-2.736-17.16,0
			C134.484,406.859,134.484,411.295,139.222,414.031z"/>
		<path id="Shadow_00000148620988974402980890000001168468588519445925_" style="fill:#E0E0E0;" d="M210.917,392.974
			c4.739,2.736,12.421,2.736,17.16,0c4.739-2.736,4.738-7.172,0-9.907c-4.738-2.736-12.421-2.736-17.16,0
			C206.179,385.803,206.179,390.238,210.917,392.974z"/>
	</g>
	<path id="Shadow_00000127763637410814561530000005326405327982483333_" style="fill:#E0E0E0;" d="M472.007,425.135l-1.893,1.093
		c-14.348,8.286-35.983,13.043-48.324,10.624c-12.341-2.419-35.534-6.921-51.804-10.052c-14.433-2.778-31.768-6.113-46.201-8.89
		c-16.27-3.13-17.828-12.384-3.479-20.668l1.749-1.01c14.349-8.284,39.171-12.464,55.441-9.336l37.459,7.202
		c16.271,3.128,41.451,7.987,56.245,10.85C485.993,407.811,486.355,416.849,472.007,425.135z"/>
</g>
<g id="Medicines_bottle">
	<g id="Pill_Bottle_00000098936161254033286640000004046548063832948352_">
		<g>
			<path id="XMLID_00000107576661651893190050000001722254810757543042_" style="fill:#BA68C8;" d="M255.932,131.274
				c0-11.815,7.807-23.63,23.421-32.645c31.228-18.03,81.858-18.03,113.086,0c15.615,9.014,23.421,20.83,23.421,32.645l0,0v135.94
				l0,0c0,11.816-7.808,23.631-23.421,32.646c-31.228,18.029-81.859,18.029-113.087,0c-15.614-9.015-23.421-20.83-23.42-32.646l0,0
				V131.274z"/>
			<path id="XMLID_00000161601506046908364090000011225037375293919880_" style="opacity:0.4;fill:#FFFFFF;" d="M286.674,94.929
				V303.56c-2.527-1.145-4.994-2.355-7.322-3.699c-5.094-2.941-9.271-6.202-12.704-9.642V108.272
				c3.433-3.441,7.61-6.702,12.705-9.643C281.68,97.285,284.146,96.073,286.674,94.929z"/>
			<path id="XMLID_00000137848646953800856850000004868143749798190517_" style="opacity:0.4;fill:#FFFFFF;" d="M307.625,310.369
				c-3.948-0.859-7.785-1.917-11.504-3.151V91.271c3.719-1.234,7.556-2.292,11.504-3.152V310.369z"/>
			<path style="opacity:0.1;" d="M257.32,122.754c4.14-5.882,10.34-11.393,18.603-16.164c30.821-17.794,79.442-19.007,112.739-3.685
				c0-2.1,0-4.184,0-6.247c1.27,0.646,2.563,1.27,3.776,1.971c15.615,9.014,23.421,20.83,23.42,32.645v26.12v5.132
				c0-0.002,0.001-0.005,0.001-0.007v59.93c0,0.002-0.001,0.005-0.001,0.007v44.759c0,11.816-7.806,23.631-23.42,32.646
				c-31.228,18.029-81.859,18.029-113.086,0c-5.846-3.375-10.596-7.144-14.254-11.157c14.876,13.891,51.895,21.536,79.396,16.122
				c27.5-5.415,44.168-22.957,44.168-35.43c0-1.846,0-6.083,0-12.113c-15.418,8.358-35.589,12.33-55.317,12.331v-60.926
				c19.728-0.001,39.899-3.056,55.317-11.348c0-5.779,0-11.731,0-17.814c-33.297,15.324-81.918,14.11-112.739-3.684
				c-9.317-5.379-15.917-11.715-19.992-18.445v-26.121C255.932,128.42,256.41,125.568,257.32,122.754z"/>
			<path id="XMLID_00000109009249355305881380000007169550135600609469_" style="opacity:0.1;" d="M402.354,272.939
				c0-7.422,0-122.283,0-167.329c8.987,7.741,13.506,16.699,13.506,25.664v135.94c0,11.816-7.808,23.631-23.421,32.646
				c-8.851,5.109-19.286,8.719-30.37,10.932C392.118,302.656,402.354,282.13,402.354,272.939z"/>
			<path id="XMLID_00000021118271183669873170000002494545476932038308_" style="opacity:0.1;" d="M387.836,296.216
				c-28.686,14.416-75.196,14.416-103.882,0c-28.685-14.414-28.685-37.786,0.001-52.202c28.686-14.416,75.196-14.416,103.881,0
				C416.523,258.429,416.522,281.801,387.836,296.216z"/>
		</g>
		<g>
			<path id="XMLID_00000163074399336154543660000005739612256252345226_" style="fill:#E0E0E0;" d="M251.083,94.754
				c0-12.532,8.281-25.064,24.841-34.625c33.122-19.123,86.822-19.123,119.945-0.001c16.56,9.562,24.841,22.094,24.841,34.626h0.003
				v37.594h-0.003c0,12.532-8.281,25.064-24.842,34.625c-33.121,19.123-86.822,19.123-119.944,0.001
				c-16.56-9.562-24.841-22.094-24.841-34.626l0,0V94.754L251.083,94.754z"/>
			<g id="XMLID_00000129897634405709849880000010827185036024443823_">
				<path id="XMLID_00000054964860107752436690000011905105663073805999_" style="opacity:0.1;" d="M315.597,179.84
					c41.97,0.229,64.122-13.394,70.847-24.521c5.113-8.461,5.995-24.07,5.995-39.545c0,0,4.734-35.252,3.815-35.361
					c-0.571-0.068,10.067-2.371,18.226-4.11c4.151,5.903,6.229,12.176,6.229,18.451h0.003v37.594h-0.003
					c0,12.532-8.281,25.064-24.842,34.625C374.098,179.541,343.46,183.793,315.597,179.84z"/>
				<g style="opacity:0.1;">
					<path d="M380.42,174.02c1.377-0.491,2.734-1.008,4.071-1.549v-48.594h-4.071V174.02z"/>
					<path d="M362.968,178.753c1.367-0.265,2.725-0.549,4.072-0.856V128.89h-4.072V178.753z"/>
					<path d="M412.854,152.96v-47.675h-4.071v52.114C410.278,155.952,411.64,154.471,412.854,152.96z"/>
					<path d="M344.338,181.069c1.36-0.078,2.718-0.176,4.072-0.292v-49.389h-4.072V181.069z"/>
					<path d="M400.294,164.192v-48.086h-4.072v50.651C397.646,165.925,398.994,165.066,400.294,164.192z"/>
					<path d="M418.672,142.979c1.342-3.499,2.037-7.064,2.037-10.631h0.004V94.754h-0.004c0-2.326-0.288-4.653-0.859-6.96h-1.178
						V142.979z"/>
					<path d="M306.47,178.272c1.348,0.287,2.704,0.555,4.071,0.801v-49.88h-4.071V178.272z"/>
					<path d="M251.083,132.348c0,3.566,0.695,7.13,2.036,10.628V91.273h-1.799c-0.142,1.159-0.238,2.319-0.238,3.48V132.348z"/>
					<path d="M258.413,152.263c1.21,1.57,2.562,3.112,4.072,4.616v-49.816h-4.072V152.263z"/>
					<path d="M272.561,164.908c1.083,0.701,2.197,1.392,3.362,2.065c0.232,0.134,0.475,0.257,0.709,0.389v-49.439h-4.071V164.908z"
						/>
					<path d="M288.707,173.038c1.34,0.519,2.694,1.021,4.072,1.491V124.68h-4.072V173.038z"/>
					<path d="M325.26,180.917c1.355,0.098,2.712,0.178,4.072,0.238V131.46h-4.072V180.917z"/>
				</g>
			</g>
			<path id="XMLID_00000021092041915403059070000007560847934196787633_" style="fill:#EBEBEB;" d="M395.867,129.378
				c-33.121,19.123-86.822,19.123-119.944,0s-33.121-50.127,0-69.249c33.122-19.123,86.823-19.123,119.944-0.001
				C428.988,79.251,428.988,110.255,395.867,129.378z"/>
			<path id="XMLID_00000035531905531305285230000011603126218180726915_" style="fill:#F5F5F5;" d="M271.367,126.468
				c-28.42-19.239-26.944-48.151,4.556-66.339c16.145-9.322,37.182-14.063,58.34-14.298c11.329,1.919,22.008,5.435,30.951,10.548
				c28.631,16.369,28.631,49.047-0.001,65.418C339.659,136.406,299.966,137.937,271.367,126.468z"/>
			<path id="XMLID_00000098207767822699526890000012817344415602764707_" style="fill:#FFFFFF;" d="M414.227,113.551
				c0,0-27.589,27.769-80.883,26.319c-53.293-1.45-74.6-30.55-77.413-39.574c-2.813-9.023-1.022-20.761,7.188-30.702
				c-7.143,6.708-11.956,15.512-12.037,25.159c0,14.086,0,37.594,0,37.594c0,3.17-1.636,14.107,15.565,28.269
				c0,0-10.088-11.466-10.088-22.487c0-11.02,0-25.981,0-25.981s18.857,31.544,76.785,31.544
				C391.274,143.694,411.305,118.285,414.227,113.551z"/>
		</g>
		<path id="XMLID_00000107590345262688143200000001070471950818049964_" style="fill:#FFFFFF;" d="M415.86,166.48
			c0,11.815-7.808,23.63-23.421,32.645s-36.078,13.522-56.543,13.522l0.001,59.93c20.465,0,40.928-4.508,56.542-13.522
			c15.613-9.015,23.421-20.83,23.421-32.645V166.48z"/>
	</g>
</g>
<g id="Pill_3">
	<g id="Pill">
		<g>
			<path style="fill:#BA68C8;" d="M136.001,307.237l42.321-8.431c19.054-3.796,31.423-22.319,27.627-41.372
				c-3.796-19.054-22.319-31.422-41.372-27.627l-42.321,8.431L136.001,307.237z"/>
			<path style="opacity:0.1;fill:#FFFFFF;" d="M136.001,307.237l42.321-8.431c19.054-3.796,31.423-22.319,27.627-41.372
				c-3.796-19.054-22.319-31.422-41.372-27.627l-42.321,8.431L136.001,307.237z"/>
			<path style="fill:#BA68C8;" d="M205.949,257.434c-1.392-6.986-4.769-13.067-9.42-17.789c5.82,6.637,0.208,22.928-17.786,26.166
				c-10.463,1.883-32.654,6.34-49.067,9.674l6.326,31.753l42.321-8.431C197.376,295.01,209.745,276.487,205.949,257.434z"/>
			<path style="opacity:0.1;" d="M138.146,303.852c32.181-6.411,39.929-7.955,39.929-7.955
				c10.784-2.148,32.861-13.434,27.874-38.464c3.153,15.827-20.443,22.533-30.643,24.565c-10.2,2.032-39.929,7.954-39.929,7.954
				L138.146,303.852z"/>
			<path style="opacity:0.15;fill:#FFFFFF;" d="M125.818,241.972c29.276-5.832,38.313-7.633,38.313-7.633
				c9.811-1.954,32.295-0.168,36.831,22.602c-2.868-14.398-25.033-11.807-34.312-9.958c-9.279,1.848-38.313,7.633-38.313,7.633
				L125.818,241.972z"/>
			
				<ellipse transform="matrix(0.9807 -0.1954 0.1954 0.9807 -50.7997 30.486)" style="fill:#BA68C8;" cx="129.128" cy="272.738" rx="20.31" ry="35.177"/>
			
				<ellipse transform="matrix(0.9807 -0.1954 0.1954 0.9807 -50.7997 30.486)" style="opacity:0.3;fill:#FFFFFF;" cx="129.128" cy="272.738" rx="20.31" ry="35.177"/>
			
				<ellipse transform="matrix(0.9807 -0.1954 0.1954 0.9807 -50.7995 30.4858)" style="fill:#BA68C8;" cx="129.128" cy="272.737" rx="16.739" ry="30.835"/>
			
				<ellipse transform="matrix(0.9807 -0.1954 0.1954 0.9807 -50.7995 30.4858)" style="opacity:0.1;" cx="129.128" cy="272.737" rx="16.739" ry="30.835"/>
			<path style="opacity:0.1;" d="M121.78,296.433c8.764,10.533,19.158,8.462,23.217-4.625c0.972-3.133,1.487-6.616,1.596-10.243
				c-6.673,1.329-11.889,2.369-14.364,2.862c-9.365,1.865-14.227,2.431-18.148-2.977C115.822,287.154,118.44,292.42,121.78,296.433z
				"/>
		</g>
		<g>
			<path style="fill:#BA68C8;" d="M79.934,246.669c-19.054,3.796-31.423,22.319-27.627,41.372
				c3.796,19.054,22.319,31.422,41.373,27.627l42.321-8.431l0,0c5.098-1.016,9.524-5.399,12.071-12.911
				c5.094-15.023,0.743-36.866-9.72-48.79c-5.231-5.962-11-8.314-16.098-7.299l0,0L79.934,246.669z"/>
			<path style="opacity:0.8;fill:#FFFFFF;" d="M79.934,246.669c-19.054,3.796-31.423,22.319-27.627,41.372
				c3.796,19.054,22.319,31.422,41.373,27.627l42.321-8.431l0,0c5.098-1.016,9.524-5.399,12.071-12.911
				c5.094-15.023,0.743-36.866-9.72-48.79c-5.231-5.962-11-8.314-16.098-7.299l0,0L79.934,246.669z"/>
			<path style="opacity:0.15;fill:#BA68C8;" d="M56.795,299.536c0.074,0.121,0.155,0.238,0.23,0.358
				c9.118,13.772,27.023,14.736,35.768,12.993c0,0,24.347-4.85,50.559-10.072c1.904-2.124,3.521-4.955,4.719-8.488
				c2.547-7.511,2.733-16.728,0.974-25.557c0,0-51.457,9.909-69.039,13.754c-17.896,3.913-27.674-8.495-24.78-16.854
				c-3.465,7.566-4.717,15.036-2.92,22.372c0.83,4.164,2.363,8.009,4.451,11.436C56.771,299.497,56.783,299.517,56.795,299.536z"/>
			<path style="opacity:0.15;fill:#BA68C8;" d="M90.025,298.988c-10.035,1.999-33.782,4.789-37.548-10.196
				c0.859,3.875,2.32,7.467,4.282,10.685c0.012,0.019,0.024,0.039,0.037,0.058c0.074,0.121,0.155,0.238,0.231,0.358
				c9.118,13.772,27.023,14.736,35.768,12.993c0,0,24.347-4.85,50.559-10.072c1.904-2.124,3.521-4.955,4.719-8.488
				c0.771-2.274,1.323-4.707,1.672-7.236C132.048,290.616,97.533,297.492,90.025,298.988z"/>
			<path style="opacity:0.3;fill:#FFFFFF;" d="M56.724,285.676c-2.868-14.398,18.597-20.499,27.877-22.347
				c7.564-1.507,44.7-8.905,58.167-11.588c-1.317-2.265-2.792-4.354-4.415-6.204c-1.833-2.089-3.732-3.724-5.645-4.937
				c-25.625,5.105-50.627,10.086-50.627,10.086C72.271,252.639,52.188,262.906,56.724,285.676z"/>
		</g>
	</g>
</g>
<g id="Vitamins_00000011752088463812067270000017624576137224492422_">
	<g id="Cap_00000172408428572188128620000015659272035368809917_">
		<g>
			
				<ellipse transform="matrix(0.866 -0.5 0.5 0.866 -137.0151 137.2832)" style="fill:#BA68C8;" cx="187.663" cy="324.312" rx="16.739" ry="30.835"/>
			
				<ellipse transform="matrix(0.866 -0.5 0.5 0.866 -137.0151 137.2832)" style="opacity:0.1;" cx="187.663" cy="324.312" rx="16.739" ry="30.835"/>
			<path style="opacity:0.1;" d="M208.815,337.276c-0.086-3.28-0.716-6.743-1.778-10.213c-4.376,2.527-8.04,4.642-10.533,6.081
				c1.143-1.749,1.813-3.836,1.813-6.081c0-0.842-0.101-1.658-0.278-2.447c5.605-0.584,9.974-5.321,9.974-11.079
				c0-6.153-4.988-11.141-11.141-11.141c-6.153,0-11.141,4.988-11.141,11.141c0,0.842,0.101,1.658,0.278,2.447
				c-5.604,0.584-9.974,5.321-9.974,11.079c0,6.108,4.917,11.062,11.008,11.135c-4.091,1.689-7.242,1.742-10.831-0.802
				c3.48,4.843,7.651,8.989,12.103,11.717C199.996,356.272,209.175,350.973,208.815,337.276z"/>
		</g>
		<g>
			<g>
				
					<ellipse transform="matrix(0.1602 -0.9871 0.9871 0.1602 -136.9554 455.6385)" style="fill:#BA68C8;" cx="199.292" cy="308.305" rx="11.015" ry="11.015"/>
				
					<ellipse transform="matrix(0.1602 -0.9871 0.9871 0.1602 -136.9554 455.6385)" style="opacity:0.5;fill:#FFFFFF;" cx="199.292" cy="308.305" rx="11.015" ry="11.015"/>
				<path style="opacity:0.2;fill:#FFFFFF;" d="M197.844,303.43c0.353,0.893,1.099,1.598,1.903,2.139
					c0.878,0.591,1.85,1.035,2.713,1.647c1.116,0.79,2.939,2.798,4.477,1.955c1.409-0.773,0.991-3.214,0.536-4.438
					c-0.545-1.467-1.632-2.72-2.826-3.664c-1.12-0.885-2.705-1.386-4.129-1.328c-1.754,0.072-3.313,1.592-2.761,3.437
					C197.783,303.263,197.812,303.347,197.844,303.43z"/>
				<path style="opacity:0.5;fill:#BA68C8;" d="M210.055,310.637c-1.065,4.964-5.479,8.681-10.763,8.681
					c-6.085,0-11.014-4.929-11.014-11.014c0-5.717,4.358-10.421,9.941-10.962c-3.592,1.363-6.146,4.834-6.146,8.906
					c0,5.263,4.267,9.525,9.525,9.525C205.277,315.774,208.471,313.688,210.055,310.637z"/>
			</g>
			<g>
				<circle style="fill:#BA68C8;" cx="188.404" cy="323.841" r="11.141"/>
				<circle style="opacity:0.25;" cx="188.404" cy="323.841" r="11.141"/>
				<path style="opacity:0.3;fill:#BA68C8;" d="M187.366,318.786c0.334,0.844,1.039,1.51,1.798,2.022
					c0.829,0.559,1.748,0.978,2.564,1.556c1.054,0.747,2.778,2.644,4.231,1.847c1.331-0.73,0.936-3.038,0.507-4.194
					c-0.515-1.387-1.542-2.57-2.671-3.462c-1.059-0.837-2.556-1.31-3.902-1.255c-1.658,0.068-3.131,1.505-2.609,3.248
					C187.307,318.629,187.335,318.708,187.366,318.786z"/>
				<path style="opacity:0.15;" d="M199.292,326.2c-1.077,5.021-5.542,8.781-10.887,8.781c-6.155,0-11.141-4.986-11.141-11.141
					c0-5.783,4.408-10.541,10.055-11.088c-3.633,1.379-6.216,4.89-6.216,9.009c0,5.323,4.316,9.635,9.635,9.635
					C194.459,331.396,197.689,329.286,199.292,326.2z"/>
			</g>
			<g>
				
					<ellipse transform="matrix(0.2298 -0.9732 0.9732 0.2298 -175.0654 454.3977)" style="fill:#BA68C8;" cx="199.546" cy="337.801" rx="11.015" ry="11.015"/>
				
					<ellipse transform="matrix(0.2298 -0.9732 0.9732 0.2298 -175.0654 454.3977)" style="opacity:0.5;fill:#FFFFFF;" cx="199.546" cy="337.801" rx="11.015" ry="11.015"/>
				<path style="opacity:0.2;fill:#FFFFFF;" d="M198.098,332.926c0.353,0.893,1.099,1.598,1.903,2.139
					c0.878,0.591,1.85,1.035,2.713,1.647c1.116,0.79,2.939,2.798,4.477,1.955c1.408-0.773,0.99-3.214,0.536-4.438
					c-0.545-1.467-1.632-2.72-2.827-3.664c-1.12-0.885-2.705-1.386-4.129-1.328c-1.754,0.072-3.313,1.592-2.761,3.437
					C198.037,332.759,198.066,332.843,198.098,332.926z"/>
				<path style="opacity:0.5;fill:#BA68C8;" d="M210.309,340.133c-1.065,4.964-5.479,8.681-10.763,8.681
					c-6.085,0-11.014-4.929-11.014-11.014c0-5.717,4.358-10.421,9.941-10.962c-3.592,1.363-6.146,4.834-6.146,8.907
					c0,5.263,4.267,9.525,9.525,9.525C205.531,345.27,208.725,343.184,210.309,340.133z"/>
			</g>
			<g>
				
					<ellipse transform="matrix(0.1602 -0.9871 0.9871 0.1602 -143.0669 471.5433)" style="fill:#BA68C8;" cx="205.583" cy="319.849" rx="11.015" ry="11.015"/>
				<path style="opacity:0.2;fill:#FFFFFF;" d="M204.556,314.852c0.33,0.834,1.027,1.493,1.778,1.999
					c0.82,0.552,1.728,0.967,2.535,1.538c1.042,0.738,2.746,2.614,4.182,1.826c1.316-0.722,0.925-3.003,0.501-4.147
					c-0.509-1.371-1.525-2.541-2.641-3.423c-1.047-0.827-2.527-1.295-3.858-1.241c-1.639,0.067-3.095,1.488-2.579,3.211
					C204.498,314.696,204.526,314.774,204.556,314.852z"/>
				<path style="opacity:0.15;" d="M216.346,322.181c-1.065,4.964-5.479,8.681-10.763,8.681c-6.085,0-11.014-4.929-11.014-11.014
					c0-5.717,4.358-10.421,9.941-10.962c-3.592,1.363-6.146,4.834-6.146,8.906c0,5.263,4.267,9.525,9.525,9.525
					C211.569,327.318,214.762,325.232,216.346,322.181z"/>
			</g>
		</g>
		<g>
			<g>
				<path style="fill:#BA68C8;" d="M242.626,333.202l-37.043,21.374c4.307-2.678,6.952-8.16,6.952-15.899
					c0-15.868-11.132-35.152-24.87-43.09c-6.73-3.885-12.84-4.322-17.322-1.891l37.098-21.422
					c16.829-9.718,38.346-3.949,48.056,12.872C265.215,301.975,259.447,323.484,242.626,333.202z"/>
				<path style="opacity:0.1;fill:#FFFFFF;" d="M242.626,333.202l-37.043,21.374c4.307-2.678,6.952-8.16,6.952-15.899
					c0-15.868-11.132-35.152-24.87-43.09c-6.73-3.885-12.84-4.322-17.322-1.891l37.098-21.422
					c16.829-9.718,38.346-3.949,48.056,12.872C265.215,301.975,259.447,323.484,242.626,333.202z"/>
				<path style="fill:#BA68C8;" d="M242.626,333.202l-37.043,21.374c4.307-2.678,6.952-8.16,6.952-15.899
					c0-7.119-2.241-14.938-5.959-22.105c10.131-5.864,20.007-11.529,25.847-14.755c16.003-8.844,16.082-26.078,8.438-30.488
					c5.928,2.972,11.076,7.652,14.636,13.818C265.215,301.975,259.447,323.484,242.626,333.202z"/>
				<path style="opacity:0.1;" d="M241.458,330.524c0,0-6.094,3.512-30.655,17.695c1.12-2.622,1.732-5.824,1.732-9.543
					c0-2.408-0.254-4.887-0.739-7.397c8.025-4.632,17.759-10.25,22.574-13.031c8.891-5.133,28.716-18.792,21.406-32.601
					C267.996,307.521,250.905,325.065,241.458,330.524z"/>
				<path style="opacity:0.15;fill:#FFFFFF;" d="M250.349,285.837c-7.548-12.038-27.325-2.638-35.422,2.034
					c-4.299,2.479-13.404,7.739-21.088,12.173c-1.979-1.724-4.044-3.226-6.174-4.458c-2.4-1.391-4.728-2.336-6.929-2.86
					c21.032-12.149,27.746-16.019,27.746-16.019C217.08,271.741,238.685,266.251,250.349,285.837z"/>
			</g>
			<g>
				<path style="fill:#BA68C8;" d="M187.665,295.587c-13.738-7.93-24.878-1.502-24.878,14.366c0,15.86,11.14,35.152,24.878,43.082
					c13.738,7.93,24.87,1.502,24.87-14.358C212.535,322.809,201.403,303.524,187.665,295.587z M188.317,349.109
					c-11.688-7.159-21.445-24.068-21.803-37.758c-0.366-13.698,8.82-18.998,20.5-11.839c11.68,7.159,21.446,24.068,21.803,37.766
					C209.174,350.976,199.997,356.276,188.317,349.109z"/>
				<path style="opacity:0.3;fill:#FFFFFF;" d="M187.665,295.587c-13.738-7.93-24.878-1.502-24.878,14.366
					c0,15.86,11.14,35.152,24.878,43.082c13.738,7.93,24.87,1.502,24.87-14.358C212.535,322.809,201.403,303.524,187.665,295.587z
					 M188.317,349.109c-11.688-7.159-21.445-24.068-21.803-37.758c-0.366-13.698,8.82-18.998,20.5-11.839
					c11.68,7.159,21.446,24.068,21.803,37.766C209.174,350.976,199.997,356.276,188.317,349.109z"/>
			</g>
		</g>
	</g>
	<g id="Vitamins">
		<g>
			<circle style="fill:#BA68C8;" cx="149.594" cy="341.806" r="11.015"/>
			<circle style="opacity:0.5;fill:#FFFFFF;" cx="149.594" cy="341.806" r="11.015"/>
			<path style="opacity:0.2;fill:#FFFFFF;" d="M148.147,336.931c0.353,0.893,1.099,1.598,1.903,2.14
				c0.878,0.591,1.85,1.035,2.713,1.647c1.116,0.79,2.939,2.798,4.477,1.955c1.408-0.773,0.99-3.215,0.536-4.438
				c-0.545-1.467-1.632-2.72-2.826-3.664c-1.12-0.885-2.705-1.386-4.129-1.328c-1.754,0.072-3.313,1.592-2.761,3.437
				C148.085,336.764,148.114,336.848,148.147,336.931z"/>
			<path style="opacity:0.5;fill:#BA68C8;" d="M160.358,344.138c-1.065,4.964-5.479,8.681-10.763,8.681
				c-6.085,0-11.014-4.929-11.014-11.014c0-5.717,4.358-10.421,9.941-10.962c-3.592,1.363-6.145,4.834-6.145,8.906
				c0,5.263,4.267,9.525,9.525,9.525C155.58,349.275,158.774,347.19,160.358,344.138z"/>
			<g>
				<text transform="matrix(1 0 0 1 143.7214 345.3345)" style="fill:#FFFFFF; font-family:'Rubik-Regular'; font-size:11.5858px;">B</text>
				
					<text transform="matrix(0.583 0 0 0.583 151.4607 349.1929)" style="fill:#FFFFFF; font-family:'Rubik-Regular'; font-size:11.5858px;">9</text>
			</g>
		</g>
		<g>
			<circle style="fill:#BA68C8;" cx="165.739" cy="354.745" r="11.015"/>
			<path style="opacity:0.2;fill:#FFFFFF;" d="M164.713,349.748c0.33,0.834,1.027,1.493,1.778,1.999
				c0.82,0.552,1.728,0.967,2.535,1.538c1.042,0.739,2.746,2.614,4.183,1.826c1.316-0.722,0.925-3.003,0.501-4.147
				c-0.509-1.371-1.525-2.541-2.641-3.423c-1.047-0.827-2.527-1.295-3.858-1.241c-1.639,0.067-3.095,1.488-2.579,3.211
				C164.655,349.592,164.682,349.671,164.713,349.748z"/>
			<path style="opacity:0.15;" d="M176.503,357.077c-1.065,4.964-5.479,8.681-10.763,8.681c-6.085,0-11.014-4.929-11.014-11.014
				c0-5.717,4.358-10.421,9.941-10.962c-3.592,1.363-6.146,4.834-6.146,8.906c0,5.263,4.267,9.525,9.525,9.525
				C171.725,362.214,174.919,360.128,176.503,357.077z"/>
			<g>
				<text transform="matrix(1 0 0 1 162.2576 358.5738)" style="fill:#FFFFFF; font-family:'Rubik-Regular'; font-size:11.5858px;">K</text>
			</g>
		</g>
		<g>
			<circle style="fill:#BA68C8;" cx="219.497" cy="380.453" r="11.141"/>
			<circle style="opacity:0.15;" cx="219.497" cy="380.453" r="11.141"/>
			<path style="opacity:0.6;fill:#BA68C8;" d="M218.459,375.398c0.334,0.844,1.039,1.51,1.798,2.022
				c0.829,0.559,1.748,0.978,2.564,1.556c1.054,0.747,2.778,2.644,4.231,1.847c1.331-0.73,0.936-3.038,0.507-4.194
				c-0.515-1.387-1.543-2.57-2.671-3.462c-1.059-0.837-2.556-1.31-3.902-1.255c-1.658,0.068-3.131,1.505-2.609,3.248
				C218.4,375.241,218.428,375.32,218.459,375.398z"/>
			<path style="opacity:0.15;" d="M230.385,382.812c-1.077,5.021-5.542,8.781-10.887,8.781c-6.155,0-11.141-4.986-11.141-11.14
				c0-5.783,4.408-10.541,10.055-11.088c-3.633,1.379-6.216,4.89-6.216,9.009c0,5.323,4.316,9.635,9.635,9.635
				C225.552,388.008,228.782,385.898,230.385,382.812z"/>
			<g>
				<text transform="matrix(1 0 0 1 215.6384 384.2974)" style="fill:#FFFFFF; font-family:'Rubik-Regular'; font-size:11.5858px;">C</text>
			</g>
		</g>
		<g>
			
				<ellipse transform="matrix(0.1602 -0.9871 0.9871 0.1602 -249.6653 543.2147)" style="fill:#BA68C8;" cx="194.404" cy="418.331" rx="11.141" ry="11.141"/>
			
				<ellipse transform="matrix(0.1602 -0.9871 0.9871 0.1602 -249.6653 543.2147)" style="opacity:0.15;" cx="194.404" cy="418.331" rx="11.141" ry="11.141"/>
			<path style="opacity:0.6;fill:#BA68C8;" d="M193.365,413.276c0.334,0.844,1.039,1.51,1.798,2.022
				c0.829,0.559,1.748,0.978,2.564,1.556c1.054,0.747,2.778,2.644,4.231,1.847c1.331-0.73,0.936-3.038,0.507-4.194
				c-0.515-1.387-1.542-2.57-2.671-3.462c-1.059-0.837-2.556-1.31-3.902-1.255c-1.658,0.068-3.131,1.505-2.609,3.248
				C193.307,413.118,193.334,413.198,193.365,413.276z"/>
			<path style="opacity:0.15;" d="M205.291,420.689c-1.077,5.021-5.542,8.781-10.887,8.781c-6.155,0-11.141-4.986-11.141-11.141
				c0-5.783,4.408-10.541,10.055-11.088c-3.633,1.379-6.216,4.89-6.216,9.009c0,5.323,4.316,9.635,9.635,9.635
				C200.458,425.885,203.689,423.775,205.291,420.689z"/>
			<g>
				<text transform="matrix(1 0 0 1 191.0193 422.1743)" style="fill:#FFFFFF; font-family:'Rubik-Regular'; font-size:11.5858px;">F</text>
			</g>
		</g>
		<g>
			
				<ellipse transform="matrix(0.9239 -0.3827 0.3827 0.9239 -137.2895 93.0285)" style="fill:#BA68C8;" cx="165.198" cy="391.614" rx="11.015" ry="11.015"/>
			
				<ellipse transform="matrix(0.9239 -0.3827 0.3827 0.9239 -137.2895 93.0285)" style="opacity:0.5;fill:#FFFFFF;" cx="165.198" cy="391.614" rx="11.015" ry="11.015"/>
			<path style="opacity:0.2;fill:#FFFFFF;" d="M163.751,386.739c0.353,0.893,1.099,1.598,1.903,2.14
				c0.878,0.591,1.849,1.035,2.713,1.646c1.116,0.79,2.939,2.798,4.477,1.955c1.408-0.773,0.99-3.214,0.536-4.438
				c-0.545-1.467-1.632-2.72-2.827-3.664c-1.12-0.885-2.705-1.386-4.129-1.328c-1.754,0.072-3.313,1.592-2.761,3.437
				C163.689,386.572,163.718,386.656,163.751,386.739z"/>
			<path style="opacity:0.5;fill:#BA68C8;" d="M175.961,393.946c-1.065,4.964-5.479,8.681-10.763,8.681
				c-6.085,0-11.014-4.929-11.014-11.014c0-5.717,4.358-10.421,9.941-10.962c-3.592,1.363-6.146,4.834-6.146,8.906
				c0,5.263,4.267,9.525,9.525,9.525C171.184,399.083,174.378,396.997,175.961,393.946z"/>
			<g>
				<text transform="matrix(1 0 0 1 161.2058 395.1431)" style="fill:#FFFFFF; font-family:'Rubik-Regular'; font-size:11.5858px;">D</text>
			</g>
		</g>
		<g>
			
				<ellipse transform="matrix(0.1602 -0.9871 0.9871 0.1602 -272.2047 483.0947)" style="fill:#BA68C8;" cx="147.802" cy="401.516" rx="11.015" ry="11.015"/>
			<path style="opacity:0.2;fill:#FFFFFF;" d="M146.776,396.519c0.33,0.834,1.027,1.493,1.778,1.999
				c0.82,0.552,1.728,0.967,2.535,1.538c1.043,0.738,2.746,2.614,4.183,1.826c1.316-0.722,0.925-3.003,0.501-4.147
				c-0.509-1.371-1.525-2.541-2.641-3.423c-1.047-0.827-2.527-1.295-3.858-1.241c-1.639,0.067-3.095,1.488-2.579,3.211
				C146.718,396.363,146.745,396.442,146.776,396.519z"/>
			<path style="opacity:0.15;" d="M158.566,403.848c-1.065,4.964-5.479,8.681-10.763,8.681c-6.085,0-11.014-4.929-11.014-11.014
				c0-5.717,4.358-10.421,9.941-10.962c-3.592,1.363-6.146,4.834-6.146,8.906c0,5.263,4.267,9.525,9.525,9.525
				C153.788,408.985,156.982,406.899,158.566,403.848z"/>
			<g>
				<text transform="matrix(1 0 0 1 144.2917 405.3462)" style="fill:#FFFFFF; font-family:'Rubik-Regular'; font-size:11.5858px;">E</text>
			</g>
		</g>
		<g>
			<circle style="fill:#BA68C8;" cx="134.439" cy="371.831" r="11.141"/>
			<circle style="opacity:0.15;" cx="134.439" cy="371.831" r="11.141"/>
			<path style="opacity:0.6;fill:#BA68C8;" d="M133.401,366.776c0.334,0.844,1.039,1.51,1.798,2.022
				c0.829,0.559,1.748,0.978,2.564,1.556c1.054,0.747,2.778,2.644,4.23,1.847c1.331-0.73,0.936-3.038,0.507-4.194
				c-0.515-1.387-1.542-2.57-2.671-3.462c-1.059-0.837-2.556-1.31-3.902-1.255c-1.658,0.068-3.131,1.505-2.609,3.248
				C133.342,366.619,133.37,366.698,133.401,366.776z"/>
			<path style="opacity:0.15;" d="M145.326,374.19c-1.077,5.021-5.542,8.781-10.887,8.781c-6.155,0-11.141-4.986-11.141-11.141
				c0-5.783,4.408-10.541,10.055-11.088c-3.633,1.379-6.216,4.89-6.216,9.009c0,5.323,4.316,9.635,9.635,9.635
				C140.494,379.386,143.724,377.276,145.326,374.19z"/>
			<g>
				<text transform="matrix(1 0 0 1 129.1228 375.6743)" style="fill:#FFFFFF; font-family:'Rubik-Regular'; font-size:11.5858px;">B</text>
				
					<text transform="matrix(0.583 0 0 0.583 136.8621 379.5327)" style="fill:#FFFFFF; font-family:'Rubik-Regular'; font-size:11.5858px;">1</text>
			</g>
		</g>
		<g>
			
				<ellipse transform="matrix(0.1602 -0.9871 0.9871 0.1602 -241.69 567.6878)" style="fill:#BA68C8;" cx="212.773" cy="425.88" rx="11.015" ry="11.015"/>
			<path style="opacity:0.2;fill:#FFFFFF;" d="M211.747,420.883c0.33,0.834,1.027,1.493,1.778,1.999
				c0.82,0.552,1.728,0.967,2.535,1.538c1.042,0.738,2.746,2.614,4.183,1.826c1.316-0.722,0.925-3.003,0.501-4.147
				c-0.509-1.371-1.525-2.541-2.641-3.423c-1.047-0.827-2.527-1.295-3.858-1.241c-1.639,0.067-3.095,1.488-2.579,3.211
				C211.689,420.727,211.716,420.805,211.747,420.883z"/>
			<path style="opacity:0.15;" d="M223.537,428.212c-1.065,4.964-5.479,8.681-10.763,8.681c-6.085,0-11.014-4.929-11.014-11.014
				c0-5.717,4.358-10.421,9.941-10.962c-3.592,1.363-6.145,4.834-6.145,8.906c0,5.263,4.267,9.525,9.525,9.525
				C218.759,433.349,221.953,431.263,223.537,428.212z"/>
			<g>
				<text transform="matrix(1 0 0 1 206.9216 429.7085)" style="fill:#FFFFFF; font-family:'Rubik-Regular'; font-size:11.5858px;">B</text>
				
					<text transform="matrix(0.583 0 0 0.583 214.6609 433.5669)" style="fill:#FFFFFF; font-family:'Rubik-Regular'; font-size:11.5858px;">2</text>
			</g>
		</g>
		<g>
			<circle style="fill:#BA68C8;" cx="199.671" cy="388.089" r="11.015"/>
			<circle style="opacity:0.5;fill:#FFFFFF;" cx="199.671" cy="388.089" r="11.015"/>
			<path style="opacity:0.2;fill:#FFFFFF;" d="M198.223,383.214c0.353,0.893,1.099,1.598,1.903,2.139
				c0.878,0.591,1.85,1.035,2.713,1.647c1.116,0.79,2.939,2.798,4.477,1.955c1.408-0.773,0.99-3.214,0.536-4.438
				c-0.545-1.467-1.632-2.72-2.827-3.664c-1.12-0.885-2.705-1.386-4.129-1.328c-1.754,0.072-3.313,1.592-2.761,3.437
				C198.162,383.047,198.191,383.131,198.223,383.214z"/>
			<path style="opacity:0.5;fill:#BA68C8;" d="M210.434,390.421c-1.065,4.964-5.479,8.681-10.763,8.681
				c-6.085,0-11.014-4.929-11.014-11.014c0-5.717,4.358-10.421,9.941-10.962c-3.592,1.363-6.146,4.834-6.146,8.906
				c0,5.263,4.267,9.525,9.525,9.525C205.656,395.558,208.85,393.472,210.434,390.421z"/>
			<g>
				<text transform="matrix(1 0 0 1 195.7888 391.6177)" style="fill:#FFFFFF; font-family:'Rubik-Regular'; font-size:11.5858px;">A</text>
			</g>
		</g>
	</g>
	<g id="Cap">
		<path style="fill:#BA68C8;" d="M52.171,363.189c-16.825,9.714-22.59,31.228-12.876,48.053
			c9.714,16.825,31.228,22.59,48.053,12.876l37.371-21.576l0,0c4.501-2.599,7.285-8.172,7.285-16.104
			c0-15.863-11.137-35.152-24.874-43.083c-6.869-3.966-13.087-4.341-17.589-1.742l0,0L52.171,363.189z"/>
		<path style="opacity:0.8;fill:#FFFFFF;" d="M52.171,363.189c-16.825,9.714-22.59,31.228-12.876,48.053
			c9.714,16.825,31.228,22.59,48.053,12.876l37.371-21.576l0,0c4.501-2.599,7.285-8.172,7.285-16.104
			c0-15.863-11.137-35.152-24.874-43.083c-6.869-3.966-13.087-4.341-17.589-1.742l0,0L52.171,363.189z"/>
		<path style="opacity:0.15;fill:#BA68C8;" d="M47.237,420.686c0.109,0.091,0.223,0.175,0.333,0.265
			c13.058,10.114,30.324,5.276,38.046,0.818c0,0,21.5-12.413,44.646-25.776c1.121-2.623,1.743-5.824,1.743-9.554
			c0-7.931-2.784-16.719-7.285-24.516c0,0-45.549,25.91-60.964,35.198c-15.692,9.454-28.937,0.843-28.88-8.003
			c-0.852,8.278,0.362,15.754,4.42,22.125c2.123,3.677,4.81,6.826,7.888,9.4C47.201,420.657,47.219,420.672,47.237,420.686z"/>
		<path style="opacity:0.15;fill:#BA68C8;" d="M78.53,409.496c-8.862,5.116-30.455,15.385-38.834,2.403
			c2.058,3.393,4.596,6.326,7.487,8.744c0.018,0.014,0.035,0.029,0.053,0.043c0.109,0.091,0.223,0.175,0.333,0.265
			c13.058,10.114,30.324,5.276,38.046,0.818c0,0,21.5-12.413,44.646-25.776c1.121-2.623,1.743-5.824,1.743-9.554
			c0-2.401-0.259-4.882-0.74-7.389C115.638,388.071,85.16,405.668,78.53,409.496z"/>
		<path style="opacity:0.3;fill:#FFFFFF;" d="M42.718,407.584c-7.341-12.714,11.029-25.386,19.223-30.116
			c6.68-3.857,39.472-22.789,51.364-29.655c-1.974-1.722-4.043-3.227-6.174-4.457c-2.406-1.389-4.73-2.329-6.931-2.863
			c-22.628,13.064-44.705,25.811-44.705,25.811C46.832,371.304,31.109,387.477,42.718,407.584z"/>
	</g>
</g>
<g id="Pill_2">
	<g id="Pill_00000178888493171022017970000013445400857471202444_">
		<path id="XMLID_00000180331072418924537500000006293542642854131120_" style="fill:#BA68C8;" d="M227.153,341.473v17.802
			c0,7.035,4.661,14.069,13.968,19.444c18.597,10.748,48.772,10.748,67.386,0c4.661-2.688,8.146-5.79,10.468-9.092
			c2.322-3.317,3.483-6.834,3.483-10.352v-17.802c0-1.311-0.166-2.638-0.498-3.949c-0.1-0.431-0.233-0.861-0.38-1.31
			c-1.743-5.193-6.105-10.153-13.073-14.185c-17.469-10.085-45.14-10.716-63.852-1.858v7.797l-6.736,3.913v-7.81
			c-3.284,2.322-5.822,4.86-7.598,7.548c-0.447,0.662-0.845,1.343-1.193,2.023c-0.432,0.845-0.797,1.708-1.079,2.572
			C227.452,337.939,227.153,339.713,227.153,341.473z"/>
		<path id="XMLID_00000180353775441140135520000015528823742520575882_" style="opacity:0.75;fill:#FFFFFF;" d="M227.153,341.473
			v17.802c0,7.035,4.661,14.069,13.968,19.444c18.597,10.748,48.772,10.748,67.386,0c4.661-2.688,8.146-5.79,10.468-9.092
			c2.322-3.317,3.483-6.834,3.483-10.352v-17.802c0-1.311-0.166-2.638-0.498-3.949c-0.1-0.431-0.233-0.861-0.38-1.31
			c-1.743-5.193-6.105-10.153-13.073-14.185c-17.469-10.085-45.14-10.716-63.852-1.858v7.797l-6.736,3.913v-7.81
			c-3.284,2.322-5.822,4.86-7.598,7.548c-0.447,0.662-0.845,1.343-1.193,2.023c-0.432,0.845-0.797,1.708-1.079,2.572
			C227.452,337.939,227.153,339.713,227.153,341.473z"/>
		<path style="opacity:0.2;fill:#BA68C8;" d="M259.872,315.349c-5.425,1.03-10.596,2.634-15.217,4.822v7.798l-6.737,3.913v-7.81
			c-3.284,2.322-5.822,4.86-7.599,7.548c-0.447,0.662-0.845,1.343-1.194,2.023c-0.431,0.845-0.797,1.708-1.079,2.571
			c-0.596,1.725-0.894,3.5-0.894,5.259v17.802c0,7.035,4.661,14.069,13.967,19.444c5.447,3.148,11.9,5.348,18.751,6.651V315.349z"/>
		<g id="XMLID_00000088125432928690851420000013269972630910283447_">
			<path id="XMLID_00000157269949054204271810000012287682399289727653_" style="fill:#BA68C8;" d="M308.502,322.027
				c17.47,10.087,18.536,26.058,3.201,36.863l-67.047-38.711C263.372,311.327,291.03,311.941,308.502,322.027z"/>
			<path id="XMLID_00000121957727619693527280000007375927735652098206_" style="opacity:0.9;fill:#FFFFFF;" d="M308.502,322.027
				c17.47,10.087,18.536,26.058,3.201,36.863l-67.047-38.711C263.372,311.327,291.03,311.941,308.502,322.027z"/>
			<path id="XMLID_00000132788893317538991500000002415072549956830126_" style="fill:#FFFFFF;" d="M311.709,354.808
				c0,0,18.526-14.215-2.065-32.089c16.358,10.113,17.049,25.608,2.059,36.171l-67.047-38.711L311.709,354.808z"/>
			<path id="XMLID_00000070092631707779421930000008283911828627282086_" style="fill:#BA68C8;" d="M237.914,324.069l67.047,38.71
				c-18.715,8.855-46.375,8.241-63.847-1.846C223.644,350.845,222.578,334.876,237.914,324.069z"/>
			<path id="XMLID_00000102534921293447552650000012548459592641070245_" style="opacity:0.9;fill:#FFFFFF;" d="M237.914,324.069
				l67.047,38.71c-18.715,8.855-46.375,8.241-63.847-1.846C223.644,350.845,222.578,334.876,237.914,324.069z"/>
			<path id="XMLID_00000078730661983767375040000012871699508793554089_" style="fill:#FFFFFF;" d="M304.961,362.779
				c-18.715,8.855-46.375,8.241-63.847-1.846c-2.072-1.197-3.906-2.479-5.516-3.821c34.282,17.172,61.865,5.07,61.865,5.07
				l-59.549-38.113L304.961,362.779z"/>
		</g>
		<polygon id="XMLID_00000111909032030154400240000015194968486852082352_" style="fill:#BA68C8;" points="244.655,327.969 
			311.709,366.87 311.702,358.89 244.655,320.18 		"/>
		<polygon id="XMLID_00000063622093433837234870000007435985639542156965_" style="opacity:0.4;fill:#FFFFFF;" points="
			244.655,327.969 311.709,366.87 311.702,358.89 244.655,320.18 		"/>
		<polygon id="XMLID_00000053511237511538517220000000702817501323627962_" style="opacity:0.2;fill:#BA68C8;" points="
			304.961,362.779 304.956,370.753 311.709,366.87 		"/>
	</g>
</g>
<g id="Pill_1">
	<g id="Pill_00000041253078354431799360000018238387601958084993_">
		<g>
			<path style="fill:#BA68C8;" d="M387.76,418.349l-42.321-8.431c-19.053-3.796-31.422-22.319-27.627-41.372
				c3.796-19.054,22.319-31.422,41.372-27.627l42.321,8.431L387.76,418.349z"/>
			<path style="opacity:0.1;fill:#FFFFFF;" d="M387.76,418.349l-42.321-8.431c-19.053-3.796-31.422-22.319-27.627-41.372
				c3.796-19.054,22.319-31.422,41.372-27.627l42.321,8.431L387.76,418.349z"/>
			<path style="fill:#BA68C8;" d="M317.812,368.546c1.392-6.986,4.768-13.067,9.42-17.789c-5.82,6.637-0.208,22.928,17.786,26.166
				c10.463,1.883,32.654,6.34,49.067,9.674l-6.326,31.753l-42.321-8.431C326.385,406.122,314.017,387.599,317.812,368.546z"/>
			<path style="opacity:0.1;" d="M385.615,414.964c-32.181-6.411-39.929-7.954-39.929-7.954
				c-10.784-2.148-32.861-13.434-27.874-38.464c-3.153,15.827,20.443,22.533,30.643,24.565c10.2,2.032,39.929,7.954,39.929,7.954
				L385.615,414.964z"/>
			<path style="opacity:0.15;fill:#FFFFFF;" d="M397.943,353.084c-29.276-5.832-38.313-7.633-38.313-7.633
				c-9.81-1.954-32.295-0.168-36.831,22.602c2.868-14.398,25.033-11.807,34.312-9.958c9.279,1.849,38.313,7.633,38.313,7.633
				L397.943,353.084z"/>
			
				<ellipse transform="matrix(0.1954 -0.9807 0.9807 0.1954 -58.9227 695.8799)" style="fill:#BA68C8;" cx="394.633" cy="383.85" rx="35.177" ry="20.31"/>
			
				<ellipse transform="matrix(0.1954 -0.9807 0.9807 0.1954 -58.9227 695.8799)" style="opacity:0.3;fill:#FFFFFF;" cx="394.633" cy="383.85" rx="35.177" ry="20.31"/>
			
				<ellipse transform="matrix(0.1954 -0.9807 0.9807 0.1954 -58.9229 695.8796)" style="fill:#BA68C8;" cx="394.633" cy="383.85" rx="30.835" ry="16.739"/>
			
				<ellipse transform="matrix(0.1954 -0.9807 0.9807 0.1954 -58.9229 695.8796)" style="opacity:0.1;" cx="394.633" cy="383.85" rx="30.835" ry="16.739"/>
			<path style="opacity:0.1;" d="M401.982,407.546c-8.764,10.533-19.158,8.462-23.217-4.625c-0.972-3.133-1.487-6.616-1.596-10.243
				c6.673,1.329,11.889,2.368,14.364,2.862c9.365,1.866,14.227,2.431,18.148-2.977C407.939,398.266,405.321,403.532,401.982,407.546
				z"/>
		</g>
		<g>
			<path style="fill:#BA68C8;" d="M443.827,357.781c19.054,3.796,31.422,22.319,27.627,41.372
				c-3.796,19.053-22.319,31.422-41.372,27.627l-42.321-8.431l0,0c-5.098-1.016-9.524-5.399-12.071-12.911
				c-5.095-15.022-0.743-36.866,9.72-48.79c5.231-5.962,11-8.314,16.097-7.299l0,0L443.827,357.781z"/>
			<path style="opacity:0.8;fill:#FFFFFF;" d="M443.827,357.781c19.054,3.796,31.422,22.319,27.627,41.372
				c-3.796,19.053-22.319,31.422-41.372,27.627l-42.321-8.431l0,0c-5.098-1.016-9.524-5.399-12.071-12.911
				c-5.095-15.022-0.743-36.866,9.72-48.79c5.231-5.962,11-8.314,16.097-7.299l0,0L443.827,357.781z"/>
			<path style="opacity:0.15;fill:#BA68C8;" d="M466.966,410.648c-0.074,0.121-0.155,0.238-0.23,0.358
				c-9.118,13.772-27.023,14.736-35.768,12.993c0,0-24.347-4.85-50.559-10.072c-1.904-2.124-3.521-4.955-4.719-8.488
				c-2.547-7.511-2.733-16.728-0.974-25.557c0,0,51.457,9.909,69.039,13.754c17.896,3.913,27.674-8.495,24.78-16.854
				c3.465,7.566,4.717,15.036,2.92,22.373c-0.829,4.164-2.363,8.009-4.451,11.436C466.99,410.609,466.978,410.629,466.966,410.648z"
				/>
			<path style="opacity:0.15;fill:#BA68C8;" d="M433.736,410.1c10.035,1.999,33.782,4.789,37.548-10.196
				c-0.859,3.875-2.32,7.467-4.282,10.685c-0.012,0.019-0.024,0.039-0.036,0.058c-0.074,0.121-0.155,0.238-0.231,0.358
				c-9.118,13.772-27.023,14.736-35.768,12.993c0,0-24.347-4.85-50.559-10.072c-1.904-2.124-3.521-4.955-4.719-8.488
				c-0.771-2.274-1.323-4.707-1.672-7.236C391.713,401.729,426.228,408.604,433.736,410.1z"/>
			<path style="opacity:0.3;fill:#FFFFFF;" d="M467.037,396.788c2.868-14.398-18.598-20.499-27.877-22.347
				c-7.564-1.507-44.7-8.905-58.167-11.588c1.317-2.265,2.792-4.354,4.415-6.204c1.833-2.089,3.732-3.724,5.645-4.938
				c25.625,5.105,50.626,10.086,50.626,10.086C451.49,363.752,471.573,374.018,467.037,396.788z"/>
		</g>
	</g>
</g>
<g id="Speech_Bubble">
	<g id="Speech_Bubble_00000065071409747244119150000001705136734481716410_">
		<g id="Speech_Bubble_00000173140019464848966510000016501768452983559347_">
			<g>
				<path style="fill:#BA68C8;" d="M135.639,169.183l1.747-5.453c0.941-4.406-17.034,5.972-17.974,10.377l5.792,15.589
					c0.222,0.508,0.566,0.885,0.971,1.134c1.273,0.783,5.955,3.424,6.362,3.673c1.282,0.785,3.168,0.293,3.703-1.375l7.502-25.73
					C144.206,165.225,140.066,166.652,135.639,169.183z"/>
				<path style="opacity:0.2;fill:#FFFFFF;" d="M135.639,169.183l1.747-5.453c0.941-4.406-17.034,5.972-17.974,10.377l5.792,15.589
					c0.222,0.508,0.566,0.885,0.971,1.134c1.273,0.783,5.955,3.424,6.362,3.673c1.282,0.785,3.168,0.293,3.703-1.375l7.502-25.73
					C144.206,165.225,140.066,166.652,135.639,169.183z"/>
			</g>
			<g id="XMLID_00000168105531540964821520000009519541973650908607_">
				<path id="XMLID_00000121965864895681067690000018058535346576762017_" style="fill:#BA68C8;" d="M160.067,63.693l-68.332,39.419
					c-1.276,0.736-2.31,2.527-2.31,4.001v81.671c0,1.473,1.04,3.254,2.322,3.978l4.226,2.39c1.283,0.724,3.357,0.714,4.633-0.023
					l68.333-39.418c1.276-0.736,2.31-2.528,2.31-4.001v-81.67c0-1.473-1.04-3.254-2.323-3.978l-4.226-2.39
					C163.417,62.946,161.343,62.956,160.067,63.693z"/>
				<path id="XMLID_00000175317736259478237690000008620281225433681077_" style="opacity:0.2;fill:#FFFFFF;" d="M160.067,63.693
					l-68.332,39.419c-1.276,0.736-2.31,2.527-2.31,4.001v81.671c0,1.473,1.04,3.254,2.322,3.978l4.226,2.39
					c1.283,0.724,3.357,0.714,4.633-0.023l68.333-39.418c1.276-0.736,2.31-2.528,2.31-4.001v-81.67c0-1.473-1.04-3.254-2.323-3.978
					l-4.226-2.39C163.417,62.946,161.343,62.956,160.067,63.693z"/>
				<path style="fill:#BA68C8;" d="M168.939,68.704l-68.333,39.419c-1.275,0.736-2.31,2.528-2.31,4.001v81.671
					c0,1.473,1.034,2.07,2.31,1.333l26.15-15.085l4.804,13.323c0.923,2.117,3.975,1.962,4.68-0.237l6.384-22.239l26.315-15.18
					c1.276-0.736,2.309-2.528,2.309-4.001v-81.67C171.249,68.565,170.215,67.968,168.939,68.704z"/>
				<path style="opacity:0.4;fill:#FFFFFF;" d="M168.939,68.704l-68.333,39.419c-1.275,0.736-2.31,2.528-2.31,4.001v81.671
					c0,1.473,1.034,2.07,2.31,1.333l26.15-15.085l4.804,13.323c0.923,2.117,3.975,1.962,4.68-0.237l6.384-22.239l26.315-15.18
					c1.276-0.736,2.309-2.528,2.309-4.001v-81.67C171.249,68.565,170.215,67.968,168.939,68.704z"/>
				<path id="XMLID_00000178892947039265806550000010156151552760763062_" style="opacity:0.7;fill:#FFFFFF;" d="M171.218,69.619
					c-0.181-1.163-1.131-1.579-2.283-0.918l-68.324,39.422c-0.64,0.373-1.216,1.003-1.632,1.728l-8.83-5.098
					c0.416-0.694,0.971-1.291,1.59-1.643l68.334-39.421c1.27-0.736,3.339-0.747,4.63-0.021l4.222,2.388
					C170.087,66.717,171.058,68.243,171.218,69.619z"/>
			</g>
		</g>
		<g>
			<polygon style="fill:#BA68C8;" points="149.616,113.46 143.006,117.275 143.006,107.574 138.077,104.737 126.539,111.398 
				126.539,126.783 115.001,133.445 115.001,148.829 119.929,151.667 126.539,147.851 126.539,157.552 131.468,160.39 
				143.006,153.728 143.006,138.343 154.545,131.682 154.545,116.297 			"/>
			<polygon style="fill:#FFFFFF;" points="143.006,122.959 143.006,107.574 131.468,114.236 131.468,129.62 119.929,136.282 
				119.929,151.667 131.468,145.005 131.468,160.39 143.006,153.728 143.006,138.343 154.545,131.682 154.545,116.297 			"/>
		</g>
	</g>
</g>
</svg>
